<?xml version="1.0" encoding="UTF-8"?>
<svg version="1.1" xmlns="http://www.w3.org/2000/svg" width="734" height="750">
<path d="M0 0 C0.52432617 0.41846191 1.04865234 0.83692383 1.58886719 1.26806641 C10.35977587 8.3062126 18.34809466 16.13988142 26.3125 24.0625 C27.0805899 24.82268936 27.0805899 24.82268936 27.86419678 25.59823608 C34.71420738 32.3937202 41.00656776 39.42203539 47 47 C47.90501365 48.09975011 48.81211131 49.19779391 49.72265625 50.29296875 C62.91304801 66.61029812 74.32952965 84.39200722 84 103 C84.51651123 103.97960693 84.51651123 103.97960693 85.04345703 104.97900391 C103.45563479 140.01926773 114.78912238 177.80631942 120 217 C120.11714355 217.81227051 120.23428711 218.62454102 120.35498047 219.46142578 C131.86612409 300.86043396 107.45138352 386.79651507 60 453 C59.58121582 453.58604004 59.16243164 454.17208008 58.73095703 454.77587891 C47.41982505 470.49764097 34.29661953 484.88082781 20.625 498.5625 C19.75617187 499.44357422 18.88734375 500.32464844 17.9921875 501.23242188 C11.977105 507.26085145 5.67673186 512.71940285 -1 518 C-2.12849365 518.90939331 -2.12849365 518.90939331 -3.27978516 519.8371582 C-13.7657722 528.27560694 -24.5290715 535.9627363 -36 543 C-36.66257812 543.41169434 -37.32515625 543.82338867 -38.0078125 544.24755859 C-112.40225099 590.28823438 -204.03097865 604.29609126 -289.04309082 584.46936035 C-374.2641484 564.02927761 -450.32055435 510.07391265 -496.56274414 435.38598633 C-498.43107943 432.28869779 -500.21633979 429.14654818 -502 426 C-502.45052734 425.22027832 -502.90105469 424.44055664 -503.36523438 423.63720703 C-547.77400813 346.54440587 -557.78220161 254.36229642 -534.93359375 168.80078125 C-521.06822543 119.02602586 -495.91425744 73.48807141 -461.10546875 35.32421875 C-459.26022445 33.28726075 -457.4691833 31.21729153 -455.6875 29.125 C-448.43274078 20.8073342 -440.42912972 13.11351238 -432 6 C-431.09378906 5.20464844 -430.18757813 4.40929687 -429.25390625 3.58984375 C-401.43696973 -20.67589969 -369.01892627 -38.98982496 -335 -53 C-334.17999512 -53.33870117 -333.35999023 -53.67740234 -332.51513672 -54.02636719 C-243.10808476 -90.35094741 -141.49154408 -80.62782646 0 0 Z M-380.7890625 70.9765625 C-382.73331937 72.7559354 -384.72392702 74.44088026 -386.75 76.125 C-426.42719318 110.93235659 -451.17950177 162.91496696 -461 214 C-461.16516113 214.82822266 -461.33032227 215.65644531 -461.50048828 216.50976562 C-466.71709185 243.84973141 -466.49884756 275.73302814 -461 303 C-460.70198486 304.52536377 -460.70198486 304.52536377 -460.39794922 306.08154297 C-452.50182307 345.5503443 -436.14710426 382.47861144 -411 414 C-409.88238281 415.43472656 -409.88238281 415.43472656 -408.7421875 416.8984375 C-365.96886891 470.72021476 -303.71621631 502.12237298 -236 510 C-230.67166807 510.5599406 -225.35628525 510.86550812 -220 511 C-218.79859375 511.03996094 -217.5971875 511.07992188 -216.359375 511.12109375 C-178.67460393 511.78018954 -141.15072023 503.92737607 -107 488 C-106.19401367 487.62649414 -105.38802734 487.25298828 -104.55761719 486.86816406 C-86.97645421 478.62978063 -70.55838627 468.74065962 -55.60449219 456.328125 C-54.04366015 455.03613987 -52.46344938 453.7676787 -50.8828125 452.5 C-36.88368387 441.14485939 -23.90606973 428.24299075 -13.24902344 413.68896484 C-11.98822013 411.98407092 -10.69071567 410.31348529 -9.3828125 408.64453125 C17.65333641 373.67830405 35.03555364 329.03878965 39 285 C39.08467529 284.06124023 39.16935059 283.12248047 39.2565918 282.15527344 C44.82251513 216.15579145 25.50585405 151.61830577 -16 100 C-16.81726563 98.97648437 -17.63453125 97.95296875 -18.4765625 96.8984375 C-29.2316636 83.68767408 -41.43522825 71.31371075 -55 61 C-56.17498434 60.07355701 -57.34942621 59.14642576 -58.5234375 58.21875 C-100.23613685 25.65394524 -152.24500129 7.70177415 -205 6 C-206.60875 5.938125 -206.60875 5.938125 -208.25 5.875 C-271.5014399 4.63477569 -334.29915907 28.09752536 -380.7890625 70.9765625 Z " fill="#FDFCFD" transform="translate(580,110)"/>
<path d="M0 0 C-3.13053323 4.39502313 -6.40051284 8.46734134 -10.125 12.375 C-44.27210767 49.90812339 -57.34799254 103.49586894 -64.0625 152.3125 C-70.68189881 200.40614031 -85.8487923 243.52501362 -125.11572266 274.57714844 C-139.41148918 285.37213772 -156.86169359 294.6873473 -174 300 C-174.99 299.67 -175.98 299.34 -177 299 C-176.38253906 298.42894531 -175.76507813 297.85789062 -175.12890625 297.26953125 C-142.52563041 266.05574053 -132.39367605 216.38798286 -131 173 C-130.87149512 165.49841721 -130.96062377 157.99531001 -131.02050781 150.4934082 C-131.2434271 119.71588078 -131.2434271 119.71588078 -128.375 106.125 C-128.20387695 105.30112793 -128.03275391 104.47725586 -127.85644531 103.62841797 C-120.25775279 69.26427922 -99.24928833 43.10654096 -69.9296875 24.3671875 C-50.77226836 12.47831857 -23.08087006 -0.76652336 0 0 Z " fill="#ED2025" transform="translate(556,259)"/>
<path d="M0 0 C34.25184182 5.58496395 67.26798871 18.28486745 93 42 C93.95648438 42.87398438 94.91296875 43.74796875 95.8984375 44.6484375 C113.42696659 61.39137425 124.09133539 82.94885704 129.25 106.5 C129.49508301 107.60178589 129.49508301 107.60178589 129.74511719 108.72583008 C132.32732488 121.371215 132.08494113 134.19962426 131.96008301 147.03543091 C131.53635511 196.79654644 135.97304735 254.17368993 171 293 C173.55688269 295.49629305 176.15813807 297.83399635 179 300 C175.76038471 301.08123409 174.02699037 300.94422022 170.8671875 299.69921875 C170.07022461 299.38694336 169.27326172 299.07466797 168.45214844 298.75292969 C167.60168945 298.40133789 166.75123047 298.04974609 165.875 297.6875 C164.98844727 297.32430664 164.10189453 296.96111328 163.18847656 296.58691406 C138.55970935 286.23213511 116.18042431 270.43121457 100 249 C99.59539551 248.47035645 99.19079102 247.94071289 98.77392578 247.39501953 C76.91520585 218.61143023 69.51484242 185.72131744 64.68029785 150.59829712 C57.3913583 97.78838297 41.79253063 42.31471431 2.1796875 4.29296875 C0 2 0 2 0 0 Z " fill="#ED2025" transform="translate(179,258)"/>
<path d="M0 0 C3.58518313 1.13833965 7.08985214 2.41180773 10.58203125 3.8046875 C47.68689508 18.54930647 82.07324432 17.90766364 118.59375 2.23535156 C123.81370526 0 123.81370526 0 126 0 C124.56805724 3.32474066 122.52240157 6.01811017 120.31884766 8.87158203 C114.00614288 17.08428925 109.18494735 25.54063555 105 35 C104.51789063 36.08925781 104.03578125 37.17851562 103.5390625 38.30078125 C94.12068665 61.21882915 92.1231501 87.71391309 96.5 112 C100.66353698 136.08955746 99.08658027 162.22754555 94 186 C93.79101074 186.99177246 93.58202148 187.98354492 93.36669922 189.00537109 C87.53589772 215.89694024 77.75358241 241.64642556 65 266 C62 265 62 265 60.80834961 263.20361328 C60.23612671 262.02387939 60.23612671 262.02387939 59.65234375 260.8203125 C59.21696289 259.92530029 58.78158203 259.03028809 58.33300781 258.1081543 C57.64223145 256.63149292 57.64223145 256.63149292 56.9375 255.125 C56.45506836 254.09995361 55.97263672 253.07490723 55.47558594 252.01879883 C35.77155634 209.29992211 24.23691604 162.16565913 30.5 115.0625 C35.31294656 78.32666284 30.88274875 41.6473645 8.1875 11.3125 C7.47980469 10.42175781 6.77210938 9.53101563 6.04296875 8.61328125 C3.86273555 5.82441699 1.93160946 2.96469497 0 0 Z " fill="#1A67B3" transform="translate(304,293)"/>
<path d="M0 0 C0.52432617 0.41846191 1.04865234 0.83692383 1.58886719 1.26806641 C10.35977587 8.3062126 18.34809466 16.13988142 26.3125 24.0625 C27.0805899 24.82268936 27.0805899 24.82268936 27.86419678 25.59823608 C34.71420738 32.3937202 41.00656776 39.42203539 47 47 C47.90501365 48.09975011 48.81211131 49.19779391 49.72265625 50.29296875 C62.91304801 66.61029812 74.32952965 84.39200722 84 103 C84.51651123 103.97960693 84.51651123 103.97960693 85.04345703 104.97900391 C103.45563479 140.01926773 114.78912238 177.80631942 120 217 C120.11714355 217.81227051 120.23428711 218.62454102 120.35498047 219.46142578 C131.86612409 300.86043396 107.45138352 386.79651507 60 453 C59.58121582 453.58604004 59.16243164 454.17208008 58.73095703 454.77587891 C47.41982505 470.49764097 34.29661953 484.88082781 20.625 498.5625 C19.75617187 499.44357422 18.88734375 500.32464844 17.9921875 501.23242188 C11.977105 507.26085145 5.67673186 512.71940285 -1 518 C-2.12849365 518.90939331 -2.12849365 518.90939331 -3.27978516 519.8371582 C-13.7657722 528.27560694 -24.5290715 535.9627363 -36 543 C-36.66257812 543.41169434 -37.32515625 543.82338867 -38.0078125 544.24755859 C-112.40225099 590.28823438 -204.03097865 604.29609126 -289.04309082 584.46936035 C-374.2641484 564.02927761 -450.32055435 510.07391265 -496.56274414 435.38598633 C-498.43107943 432.28869779 -500.21633979 429.14654818 -502 426 C-502.45052734 425.22027832 -502.90105469 424.44055664 -503.36523438 423.63720703 C-547.77400813 346.54440587 -557.78220161 254.36229642 -534.93359375 168.80078125 C-521.06822543 119.02602586 -495.91425744 73.48807141 -461.10546875 35.32421875 C-459.26022445 33.28726075 -457.4691833 31.21729153 -455.6875 29.125 C-448.43274078 20.8073342 -440.42912972 13.11351238 -432 6 C-431.09378906 5.20464844 -430.18757813 4.40929687 -429.25390625 3.58984375 C-401.43696973 -20.67589969 -369.01892627 -38.98982496 -335 -53 C-334.17999512 -53.33870117 -333.35999023 -53.67740234 -332.51513672 -54.02636719 C-243.10808476 -90.35094741 -141.49154408 -80.62782646 0 0 Z M-279.5 -65.125 C-281.41546631 -64.73320557 -281.41546631 -64.73320557 -283.36962891 -64.33349609 C-291.73104649 -62.58010629 -299.81722738 -60.56701921 -307.88183594 -57.72460938 C-310.38890878 -56.86695698 -312.91470033 -56.08232708 -315.4453125 -55.296875 C-330.2073646 -50.6535716 -344.12031448 -44.8278908 -358 -38 C-358.91410645 -37.55253418 -359.82821289 -37.10506836 -360.77001953 -36.64404297 C-387.09083159 -23.63818552 -411.27563293 -6.71967029 -433 13 C-433.6182666 13.55655273 -434.2365332 14.11310547 -434.87353516 14.68652344 C-448.37371274 26.87597041 -460.72819685 39.82564342 -471.72070312 54.32666016 C-472.96670139 55.95644491 -474.23602849 57.56448061 -475.515625 59.16796875 C-508.1773952 100.31231717 -528.70187686 150.58767101 -538 202 C-538.21172852 203.1540332 -538.42345703 204.30806641 -538.64160156 205.49707031 C-541.65826557 222.68392788 -542.36566845 239.58852804 -542.375 257 C-542.37699402 257.97353424 -542.37898804 258.94706848 -542.38104248 259.95010376 C-542.37663029 278.94879352 -541.33065839 297.97736987 -537.875 316.6875 C-537.66472168 317.84121094 -537.45444336 318.99492187 -537.23779297 320.18359375 C-534.71313553 333.37247556 -531.03336205 346.20210034 -527 359 C-526.71398926 359.91185059 -526.42797852 360.82370117 -526.13330078 361.76318359 C-511.7627629 406.81606534 -486.90941973 447.31841257 -455 482 C-453.47834722 483.70760347 -451.95752278 485.41594542 -450.4375 487.125 C-444.02528164 494.23855474 -437.28108337 500.78565116 -430 507 C-429.08863281 507.80050781 -428.17726563 508.60101562 -427.23828125 509.42578125 C-384.96783751 546.27554218 -332.17930848 571.45585507 -277.4375 582.75 C-276.54281006 582.93667236 -275.64812012 583.12334473 -274.72631836 583.31567383 C-255.24330255 587.10872184 -235.92491991 588.49448618 -216.09985352 588.39111328 C-212.43663412 588.37499619 -208.77451502 588.39108861 -205.11132812 588.41015625 C-190.1771855 588.42375508 -175.73780695 587.40693353 -161 585 C-159.07643677 584.69400879 -159.07643677 584.69400879 -157.11401367 584.38183594 C-154.02366143 583.86111557 -150.94965689 583.29350669 -147.875 582.6875 C-146.79500732 582.47585205 -145.71501465 582.2642041 -144.60229492 582.04614258 C-134.21612101 579.94475213 -124.08757234 577.23458175 -114 574 C-113.0709082 573.70222656 -112.14181641 573.40445313 -111.18457031 573.09765625 C-97.36376464 568.60414641 -84.10473238 563.27288138 -71 557 C-70.30358398 556.67032227 -69.60716797 556.34064453 -68.88964844 556.00097656 C-51.70017573 547.82539442 -35.42171917 538.14850654 -20 527 C-19.31776367 526.50854492 -18.63552734 526.01708984 -17.93261719 525.51074219 C-10.12872671 519.85864638 -2.6433472 514.06354926 4.375 507.44921875 C6.45660102 505.50701065 8.56606209 503.64132266 10.72265625 501.78515625 C22.44712718 491.56576102 33.50915968 480.32392698 43 468 C43.9445638 466.84100936 44.89274893 465.68496445 45.84375 464.53125 C100.18111951 398.36144836 124.6912331 310.92476935 116.8125 226.125 C111.10394712 171.15503453 92.23292367 118.63051544 61 73 C60.53674316 72.32291992 60.07348633 71.64583984 59.59619141 70.94824219 C54.10655115 62.9835157 48.23957187 55.39466617 42 48 C41.18917969 47.00355469 40.37835937 46.00710937 39.54296875 44.98046875 C33.09293573 37.14396896 26.09191656 29.87846569 18.9375 22.6875 C18.02782471 21.76864014 17.11814941 20.84978027 16.1809082 19.90307617 C10.0934271 13.84295453 3.72238358 8.34072337 -3 3 C-4.27803866 1.95164855 -5.55433479 0.90116565 -6.828125 -0.15234375 C-19.18027677 -10.25111012 -32.30920228 -18.78632231 -46.06054688 -26.84667969 C-47.45602779 -27.67652005 -48.84166877 -28.52298943 -50.22070312 -29.37988281 C-96.64690397 -58.0174789 -154.28041742 -71.67955105 -208.41796875 -71.39111328 C-211.99778313 -71.37500997 -215.57646906 -71.39108365 -219.15625 -71.41015625 C-239.61471059 -71.42998102 -259.47190463 -69.274368 -279.5 -65.125 Z " fill="#2770B7" transform="translate(580,110)"/>
<path d="M0 0 C1.34553955 0.19335938 1.34553955 0.19335938 2.71826172 0.390625 C46.91294028 6.95486813 89.26956535 24.68272753 124 53 C124.96035156 53.75667969 125.92070313 54.51335937 126.91015625 55.29296875 C142.85090798 68.23068854 158.01782801 83.31492774 170 100 C170.79664063 101.051875 171.59328125 102.10375 172.4140625 103.1875 C199.31502814 139.06436947 214.2440605 180.84992313 220 225 C220.1045752 225.7628833 220.20915039 226.5257666 220.31689453 227.31176758 C224.17695236 259.49175963 221.84299659 295.02524644 211.69335938 325.87597656 C210.93244719 328.20693994 210.22429328 330.55108768 209.515625 332.8984375 C198.49690704 368.53437059 179.11684475 400.27569165 154.0546875 427.72265625 C152.29434202 429.6737616 150.60815677 431.66013544 148.9375 433.6875 C146.28542454 436.80332636 143.35641122 439.42782948 140.23828125 442.0703125 C137.75785188 444.20876295 135.38793455 446.44635003 133 448.6875 C108.30164915 471.08518255 78.32326871 487.04454076 47 498 C46.23187988 498.27682617 45.46375977 498.55365234 44.67236328 498.83886719 C-15.93079827 520.52676744 -86.50169645 514.29925805 -144.19140625 487.30859375 C-163.17909774 478.25327597 -180.67977137 467.30486251 -197 454 C-197.55075195 453.55221191 -198.10150391 453.10442383 -198.66894531 452.64306641 C-212.03057723 441.69109631 -224.44139458 429.70104751 -235 416 C-236.01485065 414.72464385 -237.0305378 413.44995307 -238.046875 412.17578125 C-245.88599815 402.25180968 -252.71957402 391.97176952 -259 381 C-259.3913916 380.32565918 -259.7827832 379.65131836 -260.18603516 378.95654297 C-274.84029826 353.48797066 -283.82243413 324.82418034 -289 296 C-289.14953125 295.23268555 -289.2990625 294.46537109 -289.453125 293.67480469 C-297.90108909 249.48685457 -291.27465436 200.20697284 -274 159 C-273.49364014 157.78739502 -273.49364014 157.78739502 -272.97705078 156.55029297 C-256.5013638 117.58925195 -230.6509122 81.02279091 -197 55 C-195.72351588 53.98362835 -194.44750814 52.96665824 -193.171875 51.94921875 C-183.24989162 44.11202821 -172.99326222 37.2408252 -162 31 C-161.20142578 30.54383301 -160.40285156 30.08766602 -159.58007812 29.61767578 C-111.5643103 2.5067966 -54.58793446 -7.93535844 0 0 Z M-203.7890625 66.9765625 C-205.73331937 68.7559354 -207.72392702 70.44088026 -209.75 72.125 C-249.42719318 106.93235659 -274.17950177 158.91496696 -284 210 C-284.16516113 210.82822266 -284.33032227 211.65644531 -284.50048828 212.50976562 C-289.71709185 239.84973141 -289.49884756 271.73302814 -284 299 C-283.70198486 300.52536377 -283.70198486 300.52536377 -283.39794922 302.08154297 C-275.50182307 341.5503443 -259.14710426 378.47861144 -234 410 C-232.88238281 411.43472656 -232.88238281 411.43472656 -231.7421875 412.8984375 C-188.96886891 466.72021476 -126.71621631 498.12237298 -59 506 C-53.67166807 506.5599406 -48.35628525 506.86550812 -43 507 C-41.79859375 507.03996094 -40.5971875 507.07992188 -39.359375 507.12109375 C-1.67460393 507.78018954 35.84927977 499.92737607 70 484 C70.80598633 483.62649414 71.61197266 483.25298828 72.44238281 482.86816406 C90.02354579 474.62978063 106.44161373 464.74065962 121.39550781 452.328125 C122.95633985 451.03613987 124.53655062 449.7676787 126.1171875 448.5 C140.11631613 437.14485939 153.09393027 424.24299075 163.75097656 409.68896484 C165.01177987 407.98407092 166.30928433 406.31348529 167.6171875 404.64453125 C194.65333641 369.67830405 212.03555364 325.03878965 216 281 C216.08467529 280.06124023 216.16935059 279.12248047 216.2565918 278.15527344 C221.82251513 212.15579145 202.50585405 147.61830577 161 96 C160.18273437 94.97648437 159.36546875 93.95296875 158.5234375 92.8984375 C147.7683364 79.68767408 135.56477175 67.31371075 122 57 C120.82501566 56.07355701 119.65057379 55.14642576 118.4765625 54.21875 C76.76386315 21.65394524 24.75499871 3.70177415 -28 2 C-29.60875 1.938125 -29.60875 1.938125 -31.25 1.875 C-94.5014399 0.63477569 -157.29915907 24.09752536 -203.7890625 66.9765625 Z " fill="#266FB7" transform="translate(403,114)"/>
<path d="M0 0 C6.04464237 4.45508525 9.96931025 10.26593535 11.56640625 17.6015625 C12.62655772 25.52479979 11.76504095 32.11323858 7.07421875 38.70703125 C1.08367593 45.77359558 -4.16792497 49.67023406 -13.375 50.9375 C-21.82825586 51.40517667 -28.70642771 49.0092994 -35.24609375 43.671875 C-41.25465913 37.94433383 -44.03715389 31.9542198 -44.3125 23.625 C-44.15730328 15.99966773 -41.79627475 9.96293618 -37 4 C-25.6366129 -6.56278483 -13.39262134 -7.29501795 0 0 Z " fill="#1B68B3" transform="translate(384,246)"/>
<path d="M0 0 C3.12278398 1.40066046 5.42702719 2.85405439 7 6 C7.61180171 14.45933521 6.96666543 22.69828791 5.6875 31.0625 C5.56987305 31.85906006 5.45224609 32.65562012 5.33105469 33.47631836 C4.36063647 39.34412215 2.87513932 45.1405147 -2 49 C-10.15347867 51.71782622 -19.08323199 49.76736581 -27 47 C-29.91332928 45.11490458 -31.47091534 44.05816932 -33 41 C-33.65696805 32.73736343 -32.86639917 24.66980123 -31.6875 16.5 C-31.56987305 15.65195801 -31.45224609 14.80391602 -31.33105469 13.93017578 C-30.44911151 8.24491294 -29.36714652 3.29937545 -25.08984375 -0.85546875 C-18.32885411 -4.55821635 -7.09141839 -1.69741398 0 0 Z " fill="#ED2529" transform="translate(670,383)"/>
<path d="M0 0 C7.21671523 1.72573625 16.07772527 4.12194376 21 10 C24.06866236 19.32632677 18.53337994 29.56011979 14.85888672 38.01806641 C14.14221568 39.67182863 13.45939705 41.34020859 12.78515625 43.01171875 C9.56146817 50.84437453 9.56146817 50.84437453 6 53 C-2.96148008 54.80269619 -11.74300441 51.05939907 -19.3828125 46.61328125 C-22.85170059 44.05023641 -22.85170059 44.05023641 -24 42 C-24.83205681 34.79699843 -22.64267893 28.7604473 -20.3125 22 C-19.97283203 20.9584375 -19.63316406 19.916875 -19.28320312 18.84375 C-12.38249697 -1.58749961 -12.38249697 -1.58749961 0 0 Z " fill="#ED2429" transform="translate(644,439)"/>
<path d="M0 0 C1.20591797 0.34804687 2.41183594 0.69609375 3.65429688 1.0546875 C10.68480548 3.1510291 16.1917724 5.0042724 21.4375 10.25 C22.93363255 18.98323884 20.07335395 28.53684166 15.3125 35.875 C11.9194365 40.17288043 11.9194365 40.17288043 9.50292969 40.55957031 C2.17197498 40.61639942 -4.30391165 39.04660804 -11.3125 37 C-12.40949219 36.69964844 -13.50648438 36.39929688 -14.63671875 36.08984375 C-26.94248466 32.58456497 -26.94248466 32.58456497 -30.9375 27.5 C-32.73411862 21.03217297 -31.33433956 15.79896358 -29.3125 9.5625 C-29.10810303 8.92078857 -28.90370605 8.27907715 -28.69311523 7.61791992 C-23.38539467 -7.81998737 -12.89988931 -3.90109253 0 0 Z " fill="#ED2429" transform="translate(453.5625,67.75)"/>
<path d="M0 0 C4.016846 2.75665902 7.06680848 5.48921978 9 10 C9.41791045 16.1641791 9.41791045 16.1641791 8 19 C8.86625 18.814375 9.7325 18.62875 10.625 18.4375 C14 19 14 19 15.734375 21.00390625 C17.24128854 23.29656756 18.66052233 25.60603991 20 28 C18.7391988 29.03319813 17.46596742 30.05124379 16.1875 31.0625 C15.12595703 31.91521484 15.12595703 31.91521484 14.04296875 32.78515625 C13.36878906 33.18605469 12.69460937 33.58695313 12 34 C8.60085025 32.86695008 7.94745549 31.87481525 6 29 C0.54069953 29.45632451 -2.60514468 31.40841004 -6.875 34.5625 C-7.46796875 34.98724609 -8.0609375 35.41199219 -8.671875 35.84960938 C-10.12154965 36.89010166 -11.56177551 37.9437372 -13 39 C-11.80100302 42.0831351 -10.52299523 45.06279492 -9 48 C-10.2363168 48.89422914 -11.48971562 49.76487891 -12.75 50.625 C-13.44609375 51.11226562 -14.1421875 51.59953125 -14.859375 52.1015625 C-17 53 -17 53 -18.91088867 52.36962891 C-21.59739581 50.60834516 -22.83013464 48.68423812 -24.56640625 45.984375 C-25.21673828 44.98019531 -25.86707031 43.97601563 -26.53710938 42.94140625 C-27.53967773 41.36166016 -27.53967773 41.36166016 -28.5625 39.75 C-29.57086914 38.19345703 -29.57086914 38.19345703 -30.59960938 36.60546875 C-33.66946293 31.8314959 -36.52284837 27.11333028 -39 22 C-34.69407655 18.959138 -30.35412812 15.97114322 -26 13 C-25.18096191 12.43829102 -24.36192383 11.87658203 -23.51806641 11.29785156 C-20.8764044 9.49544454 -18.22122746 7.71461605 -15.5625 5.9375 C-14.71075195 5.35331299 -13.85900391 4.76912598 -12.98144531 4.16723633 C-5.16303468 -1.00779956 -5.16303468 -1.00779956 0 0 Z " fill="#ED2429" transform="translate(215,98)"/>
<path d="M0 0 C14.09531335 4.54000209 14.09531335 4.54000209 17.10205078 10.00195312 C18.68095495 14.72935971 19.22778793 19.61173223 19.72314453 24.55371094 C20.14921909 28.3184967 20.95429576 31.98668632 21.75 35.6875 C22.16768264 37.79146523 22.58477199 39.89554896 23 42 C23.31227539 41.36908447 23.62455078 40.73816895 23.94628906 40.08813477 C25.36658239 37.23887497 26.80792063 34.40079107 28.25 31.5625 C28.74113281 30.56927734 29.23226562 29.57605469 29.73828125 28.55273438 C30.22167969 27.60849609 30.70507812 26.66425781 31.203125 25.69140625 C31.64301758 24.81685791 32.08291016 23.94230957 32.53613281 23.04125977 C34 21 34 21 35.94042969 20.08569336 C39.63305531 19.93205282 41.94937408 22.06402586 45 24 C40.48004999 33.25628061 35.7888466 42.32581664 30.56640625 51.20703125 C28.91096236 53.95336884 28.91096236 53.95336884 28 57 C25.6875 56.375 25.6875 56.375 22 55 C20.64261719 54.56880859 20.64261719 54.56880859 19.2578125 54.12890625 C15.88423844 52.76426422 13.63584124 51.52972847 11 49 C9.28630402 44.17001379 8.74243349 39.45809195 8.25927734 34.37695312 C7.82119027 30.36074243 7.05077679 26.40742331 6.3125 22.4375 C6.05709244 20.99896366 5.80304406 19.56018489 5.55078125 18.12109375 C5.36902344 17.09113281 5.18726563 16.06117187 5 15 C0.61962901 22.64119306 -3.7450748 30.28794808 -8 38 C-12.455 36.02 -12.455 36.02 -17 34 C-16.38767609 29.60482939 -14.75900077 26.30987656 -12.65625 22.421875 C-12.32709595 21.80983215 -11.99794189 21.19778931 -11.65881348 20.56719971 C-10.96585108 19.28143701 -10.26978773 17.99734126 -9.57080078 16.71484375 C-8.49764435 14.74567755 -7.43358027 12.77181534 -6.37109375 10.796875 C-1.17374997 1.17374997 -1.17374997 1.17374997 0 0 Z " fill="#ED2429" transform="translate(492,81)"/>
<path d="M0 0 C11.35548245 4.95061905 22.68483326 9.95794075 34 15 C33.70351562 15.87398437 33.40703125 16.74796875 33.1015625 17.6484375 C32.42848978 19.69629705 31.80567621 21.76266863 31.2734375 23.8515625 C30.21860561 27.10778268 29.17895033 29.34101272 27 32 C22.53107722 33.97970095 18.09780773 34.80635035 13.29492188 35.59521484 C9.32119091 36.29611335 5.41867601 37.29439741 1.5 38.25 C0.05250895 38.59035685 -1.39537122 38.9290659 -2.84375 39.265625 C-3.8853125 39.50796875 -4.926875 39.7503125 -6 40 C-1.62032663 43.76910228 3.8041201 45.70785812 9.06445312 47.95117188 C9.81017578 48.28568359 10.55589844 48.62019531 11.32421875 48.96484375 C12.00572998 49.2599585 12.68724121 49.55507324 13.3894043 49.85913086 C15 51 15 51 15.81958008 52.92407227 C16.09906208 56.13981709 14.55531995 58.26263688 13 61 C6.4064316 60.18037636 0.96459112 57.40077856 -4.93334961 54.53515625 C-6.81861529 53.62203809 -8.712347 52.72848666 -10.60742188 51.8359375 C-12.38922852 50.97742188 -12.38922852 50.97742188 -14.20703125 50.1015625 C-15.2947583 49.57900879 -16.38248535 49.05645508 -17.50317383 48.51806641 C-20 47 -20 47 -21 44 C-19.86167452 38.43627432 -18.08212889 33.09909232 -14 29 C-7.58118044 25.63342657 -0.09017737 24.96846815 7 24 C8.34783744 23.76890703 9.69444247 23.53038186 11.0390625 23.28125 C13.68912669 22.8005701 16.33273614 22.36999312 19 22 C19 21.34 19 20.68 19 20 C18.19304687 19.75507813 17.38609375 19.51015625 16.5546875 19.2578125 C12.26150851 17.73868763 8.22733258 15.84272902 4.125 13.875 C3.34125 13.50246094 2.5575 13.12992188 1.75 12.74609375 C-0.16813499 11.83381003 -2.08427329 10.91733016 -4 10 C-3.52449439 8.51965236 -3.04448784 7.04074979 -2.5625 5.5625 C-2.29566406 4.73878906 -2.02882813 3.91507813 -1.75390625 3.06640625 C-1 1 -1 1 0 0 Z " fill="#ED2429" transform="translate(96,212)"/>
<path d="M0 0 C3.98181883 4.22424312 5.13753998 9.24696934 6.81640625 14.72265625 C7.16703125 15.81578125 7.51765625 16.90890625 7.87890625 18.03515625 C12.80942484 33.5093992 12.80942484 33.5093992 11.56640625 38.72265625 C6.62405951 46.05706158 -0.15354785 47.71846052 -8.43359375 49.72265625 C-11.89793394 50.27695068 -15.05416197 50.76720789 -18.43359375 49.72265625 C-23.15369941 46.00378513 -24.79082094 42.12179294 -26.55859375 36.59765625 C-26.81012207 35.84500488 -27.06165039 35.09235352 -27.32080078 34.31689453 C-28.04470664 32.12453416 -28.74400674 29.92602136 -29.43359375 27.72265625 C-29.7790625 26.62953125 -30.12453125 25.53640625 -30.48046875 24.41015625 C-31.92805234 19.49383463 -33.25614663 14.86361172 -32.43359375 9.72265625 C-30.0263184 6.55880864 -28.45617071 5.01806737 -24.62109375 3.91015625 C-23.53828125 3.81734375 -23.53828125 3.81734375 -22.43359375 3.72265625 C-20.89330285 7.98110756 -20.32479554 10.09953923 -21.12109375 14.66015625 C-22.0938813 20.88599657 -19.56463239 26.53847392 -17.5625 32.34375 C-16.43359375 35.72265625 -16.43359375 35.72265625 -16.43359375 37.72265625 C-10.22444937 38.25109407 -5.89984913 36.64346653 -0.43359375 33.72265625 C-0.10359375 33.39265625 0.22640625 33.06265625 0.56640625 32.72265625 C0.25411423 26.26862107 -1.22310575 21.00613301 -3.59375 15.0078125 C-4.43359375 12.72265625 -4.43359375 12.72265625 -4.43359375 10.72265625 C-6.08359375 10.72265625 -7.73359375 10.72265625 -9.43359375 10.72265625 C-9.14484375 11.56570313 -8.85609375 12.40875 -8.55859375 13.27734375 C-8.18734375 14.37304688 -7.81609375 15.46875 -7.43359375 16.59765625 C-6.87671875 18.23347656 -6.87671875 18.23347656 -6.30859375 19.90234375 C-5.43359375 22.72265625 -5.43359375 22.72265625 -5.43359375 24.72265625 C-7.74359375 25.38265625 -10.05359375 26.04265625 -12.43359375 26.72265625 C-12.60375 26.20058594 -12.77390625 25.67851562 -12.94921875 25.140625 C-14.70815824 19.79831411 -16.61868937 14.54061353 -18.6640625 9.30078125 C-19.45939197 6.63622565 -19.57774321 4.48634932 -19.43359375 1.72265625 C-5.61641227 -2.94794031 -5.61641227 -2.94794031 0 0 Z " fill="#ED262A" transform="translate(98.43359375,431.27734375)"/>
<path d="M0 0 C1.85574144 4.66137345 3.70703891 9.32447725 5.55419922 13.98925781 C6.18350652 15.57665868 6.81403596 17.16357559 7.44580078 18.75 C8.35248681 21.02739033 9.25479598 23.30647201 10.15625 25.5859375 C10.44060913 26.29744965 10.72496826 27.00896179 11.01794434 27.74203491 C13 32.77225659 13 32.77225659 13 35 C10.61009899 36.03712685 8.21473126 37.05468019 5.8125 38.0625 C5.13896484 38.35705078 4.46542969 38.65160156 3.77148438 38.95507812 C-0.3558122 40.66639622 -2.73611265 41.24247591 -7 40 C-9.5078125 38.74072266 -9.5078125 38.74072266 -12.125 37.1640625 C-13.07890625 36.59429687 -14.0328125 36.02453125 -15.015625 35.4375 C-16.00046875 34.839375 -16.9853125 34.24125 -18 33.625 C-18.98484375 33.03460938 -19.9696875 32.44421875 -20.984375 31.8359375 C-23.66022354 30.23042838 -26.3304595 28.615966 -29 27 C-30.6662338 25.99927891 -32.33277337 24.99906614 -34 24 C-33.72736328 24.68102783 -33.45472656 25.36205566 -33.17382812 26.0637207 C-31.94391063 29.1445589 -30.72187307 32.22846302 -29.5 35.3125 C-29.07074219 36.38435547 -28.64148438 37.45621094 -28.19921875 38.56054688 C-27.79316406 39.58857422 -27.38710937 40.61660156 -26.96875 41.67578125 C-26.59169922 42.62364502 -26.21464844 43.57150879 -25.82617188 44.5480957 C-25 47 -25 47 -25 50 C-27.97 50.99 -30.94 51.98 -34 53 C-37.54957907 46.2159914 -40.42480793 39.23725679 -43.25 32.125 C-43.70890625 30.98546875 -44.1678125 29.8459375 -44.640625 28.671875 C-45.07375 27.58648437 -45.506875 26.50109375 -45.953125 25.3828125 C-46.34661133 24.39684082 -46.74009766 23.41086914 -47.14550781 22.39501953 C-48 20 -48 20 -48 18 C-45.58848443 16.96520787 -43.17205531 15.9470628 -40.75 14.9375 C-40.06808594 14.64294922 -39.38617188 14.34839844 -38.68359375 14.04492188 C-34.96191487 12.50927768 -32.79655295 11.62540851 -29 13 C-27.05716051 13.99450907 -25.14166701 15.04311479 -23.24609375 16.125 C-22.14458984 16.74890625 -21.04308594 17.3728125 -19.90820312 18.015625 C-18.76287109 18.67046875 -17.61753906 19.3253125 -16.4375 20 C-14.1672018 21.2949601 -11.89463811 22.58572587 -9.62109375 23.875 C-8.6148999 24.44992188 -7.60870605 25.02484375 -6.57202148 25.6171875 C-3.99751257 27.09566845 -3.99751257 27.09566845 -1 28 C-1.27263672 27.34926514 -1.54527344 26.69853027 -1.82617188 26.02807617 C-3.05626559 23.08347363 -4.27821559 20.13555938 -5.5 17.1875 C-5.92925781 16.16333984 -6.35851562 15.13917969 -6.80078125 14.08398438 C-7.20683594 13.10107422 -7.61289062 12.11816406 -8.03125 11.10546875 C-8.59682617 9.74651489 -8.59682617 9.74651489 -9.17382812 8.36010742 C-10 6 -10 6 -10 3 C-3.375 0 -3.375 0 0 0 Z " fill="#ED2328" transform="translate(276,69)"/>
<path d="M0 0 C5.54822921 4.85434215 8.67582183 11.56416934 11.875 18.0625 C12.37257813 19.02994141 12.87015625 19.99738281 13.3828125 20.99414062 C13.85203125 21.93580078 14.32125 22.87746094 14.8046875 23.84765625 C15.43866455 25.1162146 15.43866455 25.1162146 16.08544922 26.41040039 C17.16273573 29.46079495 17.27774906 31.78553582 17 35 C14.09076433 39.67555732 14.09076433 39.67555732 10.859375 40.63671875 C10.24578125 40.75660156 9.6321875 40.87648437 9 41 C8.29234251 39.8033603 7.60974879 38.59188424 6.9375 37.375 C6.55464844 36.70210937 6.17179688 36.02921875 5.77734375 35.3359375 C5 33 5 33 5.625 30.21875 C6.16010788 25.62574068 4.34134146 23.01221385 2.0625 19.125 C1.48338867 18.09246094 1.48338867 18.09246094 0.89257812 17.0390625 C-0.0569375 15.35103473 -1.02651058 13.67431659 -2 12 C-2.99 12 -3.98 12 -5 12 C-4.52356063 17.83071039 -2.76988697 21.75234472 0.0625 26.8125 C3.15571199 32.67760413 6.08569082 38.24894814 4 45 C0.47570703 49.02776339 -3.77221452 50.57340278 -8.9375 51.5625 C-13.5679093 50.71201666 -15.30662852 47.70101226 -18 44 C-19.91016379 40.86856743 -21.5937857 37.64653443 -23.25 34.375 C-23.683125 33.54226562 -24.11625 32.70953125 -24.5625 31.8515625 C-30.7485148 19.86138567 -30.7485148 19.86138567 -30 13 C-27.6309066 9.78480181 -25.8103402 8.81650147 -22 8 C-21.2895526 9.17391524 -20.60773256 10.36516929 -19.9375 11.5625 C-19.55464844 12.22378906 -19.17179688 12.88507813 -18.77734375 13.56640625 C-18 16 -18 16 -18.625 19.28125 C-19.12467205 24.23633117 -17.5382396 26.76761793 -15.0625 30.9375 C-14.67642578 31.62134766 -14.29035156 32.30519531 -13.89257812 33.00976562 C-12.94497984 34.68268605 -11.97473197 36.34274237 -11 38 C-9.68 38 -8.36 38 -7 38 C-7.61849048 31.16286886 -10.90118033 25.4285201 -13.84960938 19.34375 C-17.92843924 10.64922984 -17.92843924 10.64922984 -17 6 C-15.35546875 4.13671875 -15.35546875 4.13671875 -13.1875 2.6875 C-12.47980469 2.19636719 -11.77210938 1.70523438 -11.04296875 1.19921875 C-7.02387095 -1.15998398 -4.4158305 -1.38535859 0 0 Z " fill="#ED252A" transform="translate(635,211)"/>
<path d="M0 0 C2.9296875 0.328125 2.9296875 0.328125 4.9921875 2.3203125 C5.6315625 3.27164063 6.2709375 4.22296875 6.9296875 5.203125 C7.6825 6.28335938 8.4353125 7.36359375 9.2109375 8.4765625 C9.63117188 9.08338867 10.05140625 9.69021484 10.484375 10.31542969 C13.9048125 15.07862002 17.64998404 19.61130946 21.3203125 24.18310547 C21.90296875 24.92189941 22.485625 25.66069336 23.0859375 26.421875 C23.60994141 27.07865234 24.13394531 27.73542969 24.67382812 28.41210938 C25.97671344 30.39987064 26.50330501 32.00498647 26.9296875 34.328125 C24.99569942 34.60398066 23.05714841 34.84799915 21.1171875 35.078125 C20.03824219 35.21734375 18.95929688 35.3565625 17.84765625 35.5 C16.88472656 35.44328125 15.92179687 35.3865625 14.9296875 35.328125 C13.92220577 34.0004359 12.92216944 32.6670639 11.9296875 31.328125 C7.56475117 30.94371299 3.26244408 31.74913748 -1.0703125 32.328125 C-2.12476563 32.4209375 -3.17921875 32.51375 -4.265625 32.609375 C-7.0583388 32.93705342 -9.46144953 33.27317495 -12.0703125 34.328125 C-12.5446875 35.483125 -13.0190625 36.638125 -13.5078125 37.828125 C-14.0234375 38.983125 -14.5390625 40.138125 -15.0703125 41.328125 C-19.01637824 42.58715979 -22.95067565 43.01516034 -27.0703125 43.328125 C-24.70537387 33.50799886 -21.28986632 24.06241876 -17.85449219 14.57861328 C-17.20049917 12.7017429 -16.62872586 10.79647999 -16.078125 8.88671875 C-15.3014167 6.34577303 -14.69828541 4.42618128 -13.0703125 2.328125 C-8.80978811 0.37876895 -4.57785545 0.48923646 0 0 Z " fill="#ED252A" transform="translate(321.0703125,58.671875)"/>
<path d="M0 0 C3.60938352 2.40456113 5.24606865 3.95974165 7.1484375 7.91015625 C7.23057129 16.39204954 4.37296894 24.80217167 2.1484375 32.91015625 C1.72004331 34.63740185 1.29867452 36.36641641 0.88671875 38.09765625 C0.02333087 41.71557009 -0.89279319 45.3161104 -1.8515625 48.91015625 C-8.21025815 45.77156929 -8.21025815 45.77156929 -10.8515625 42.91015625 C-10.78125 41 -10.78125 41 -10.4765625 38.78515625 C-10.22745952 35.10936836 -10.670597 34.12436671 -13.10546875 31.2421875 C-15.94629568 28.68128227 -18.83809993 26.26480514 -21.8515625 23.91015625 C-23.13546875 22.75580078 -23.13546875 22.75580078 -24.4453125 21.578125 C-26.66174808 19.69477487 -26.66174808 19.69477487 -29.02734375 19.94921875 C-30.08501953 20.23925781 -30.08501953 20.23925781 -31.1640625 20.53515625 C-34.1657735 21.05390832 -35.45294061 21.11012717 -38.2109375 19.7265625 C-40.25339896 18.21644472 -42.12213365 16.77153062 -43.8515625 14.91015625 C-43.8515625 14.25015625 -43.8515625 13.59015625 -43.8515625 12.91015625 C-6.65748067 -2.54443439 -6.65748067 -2.54443439 0 0 Z " fill="#ED2429" transform="translate(567.8515625,127.08984375)"/>
<path d="M0 0 C1.98 1.65 3.96 3.3 6 5 C4.58161241 8.22584678 2.86824816 10.37805172 0.375 12.85546875 C-0.33140625 13.55994141 -1.0378125 14.26441406 -1.765625 14.99023438 C-2.87164062 16.07788086 -2.87164062 16.07788086 -4 17.1875 C-4.73734375 17.92419922 -5.4746875 18.66089844 -6.234375 19.41992188 C-11.71898191 24.85949096 -11.71898191 24.85949096 -14 26 C-13.34 27.32 -12.68 28.64 -12 30 C-7.74088153 28.3130142 -4.8223007 25.23205575 -1.5625 22.125 C2.18152025 18.58347566 5.91824684 15.1585903 10 12 C11.32 13.32 12.64 14.64 14 16 C12.59207045 19.25343466 10.94140954 21.21524861 8.3046875 23.56640625 C7.23154297 24.5419043 7.23154297 24.5419043 6.13671875 25.53710938 C4.62262838 26.89299169 3.10698878 28.2471459 1.58984375 29.59960938 C0.87699219 30.24865234 0.16414063 30.89769531 -0.5703125 31.56640625 C-1.22789551 32.15365479 -1.88547852 32.74090332 -2.56298828 33.34594727 C-4.32792105 35.01226671 -4.32792105 35.01226671 -4 38 C-2.68 38.66 -1.36 39.32 0 40 C0.63446045 39.3498291 0.63446045 39.3498291 1.28173828 38.68652344 C3.22407533 36.70229597 5.17443293 34.7261363 7.125 32.75 C7.79015625 32.06808594 8.4553125 31.38617188 9.140625 30.68359375 C12.86999992 26.91765633 16.46007844 23.74375321 21 21 C23.475 23.97 23.475 23.97 26 27 C16.76 36.24 7.52 45.48 -2 55 C-5.80717218 53.09641391 -7.72132957 51.51256189 -10.66015625 48.53515625 C-11.53607422 47.65279297 -12.41199219 46.77042969 -13.31445312 45.86132812 C-14.22130859 44.93771484 -15.12816406 44.01410156 -16.0625 43.0625 C-16.97322266 42.14275391 -17.88394531 41.22300781 -18.82226562 40.27539062 C-20.51277712 38.56743834 -22.20122877 36.85744307 -23.88696289 35.14477539 C-25.58398949 33.42225908 -27.28710765 31.70670738 -29 30 C-27.55011913 26.5612773 -25.77216366 24.70956549 -22.9375 22.3125 C-14.90237402 15.28324399 -7.50269194 7.58762315 0 0 Z " fill="#ED252A" transform="translate(165,129)"/>
<path d="M0 0 C5.64735299 5.48600005 6.92650904 14.4331857 8.9375 21.8125 C9.16050781 22.62009766 9.38351562 23.42769531 9.61328125 24.25976562 C10.84106357 28.95854263 11.67516633 33.22981774 11.1875 38.125 C7.71213265 41.84283484 5.13159799 43.33327051 0.1875 44.125 C-0.20147161 42.50328761 -0.57328298 40.87745075 -0.9375 39.25 C-1.14632812 38.34507812 -1.35515625 37.44015625 -1.5703125 36.5078125 C-1.65023437 35.72148437 -1.73015625 34.93515625 -1.8125 34.125 C-1.1525 33.465 -0.4925 32.805 0.1875 32.125 C-0.23419017 25.51852071 -1.8484193 18.05316141 -4.8125 12.125 C-11.02220773 11.79233709 -15.09514895 12.67470669 -20.8125 15.125 C-20.39555659 21.88235864 -19.89213989 28.98922893 -16.8125 35.125 C-14.82069591 36.14122658 -12.82097365 37.14212992 -10.8125 38.125 C-9.68184324 41.06576922 -9.19179511 44.00562468 -8.8125 47.125 C-11.99477545 49.24651697 -14.01317838 49.67722655 -17.81640625 49.55859375 C-20.66776989 48.9392173 -22.1633653 47.35225396 -23.796875 45 C-25.6875425 41.50953692 -26.75943949 37.94098733 -27.8125 34.125 C-28.34230469 32.37896484 -28.34230469 32.37896484 -28.8828125 30.59765625 C-33.384551 15.38939695 -33.384551 15.38939695 -31.8125 8.125 C-25.67199067 -0.36335113 -9.61928498 -2.99266644 0 0 Z " fill="#ED262B" transform="translate(659.8125,265.875)"/>
<path d="M0 0 C0 3.63 0 7.26 0 11 C-4.29 11 -8.58 11 -13 11 C-12.855625 12.29035156 -12.71125 13.58070313 -12.5625 14.91015625 C-12.37480312 16.62758266 -12.18731414 18.3450318 -12 20.0625 C-11.90460937 20.91005859 -11.80921875 21.75761719 -11.7109375 22.63085938 C-11.18943842 27.45472589 -10.89467273 32.14836264 -11 37 C-9.7625 36.7525 -9.7625 36.7525 -8.5 36.5 C-4.58727683 35.94103955 -0.94816827 35.93192813 3 36 C3 39.96 3 43.92 3 48 C-1.47889681 48.33734798 -5.95806031 48.67000643 -10.4375 49 C-11.69755859 49.09539062 -12.95761719 49.19078125 -14.25585938 49.2890625 C-20.85809778 49.77173267 -27.38027835 50.11525087 -34 50 C-35.09436179 45.86490287 -35.07127804 42.27668213 -35 38 C-30.38 38 -25.76 38 -21 38 C-21.33 29.42 -21.66 20.84 -22 12 C-23.65 12.33 -25.3 12.66 -27 13 C-30.34036324 13.12191107 -33.65564341 13.04459142 -37 13 C-37 9.37 -37 5.74 -37 2 C-24.60857456 0.56479871 -12.47524956 -0.29087369 0 0 Z " fill="#ED252A" transform="translate(676,322)"/>
<path d="M0 0 C0.495 5.445 0.495 5.445 1 11 C-3.76986433 11.95397287 -8.16144615 12.03998805 -13 12 C-12.855625 13.12277344 -12.71125 14.24554688 -12.5625 15.40234375 C-11.61489846 22.97048759 -10.72207227 30.35698747 -11 38 C-10.38125 37.835 -9.7625 37.67 -9.125 37.5 C-4.72084064 36.7953345 -0.45933321 36.94054222 4 37 C4.495 42.445 4.495 42.445 5 48 C0.85617028 48.43180046 -3.28811252 48.85887322 -7.43286133 49.28173828 C-8.84021873 49.42597507 -10.2474488 49.57146041 -11.65454102 49.71826172 C-13.68733322 49.93011599 -15.7205544 50.13734464 -17.75390625 50.34375 C-18.97408447 50.46943359 -20.1942627 50.59511719 -21.45141602 50.72460938 C-24.98346619 50.99871688 -28.45891217 51.04766467 -32 51 C-33.28317892 47.15046324 -33.06643637 44.05261865 -33 40 C-29.88418088 39.22104522 -27.00766409 38.94256013 -23.8125 38.96875 C-21.9253125 38.98421875 -21.9253125 38.98421875 -20 39 C-20.144375 37.94941406 -20.28875 36.89882813 -20.4375 35.81640625 C-21.41505494 28.49781309 -22.26432715 21.40116009 -22 14 C-26.62 14.33 -31.24 14.66 -36 15 C-36.96070434 12.11788698 -37.10581883 10.30149956 -37.0625 7.3125 C-37.05347656 6.50425781 -37.04445312 5.69601562 -37.03515625 4.86328125 C-37.02355469 4.24839844 -37.01195312 3.63351562 -37 3 C-32.85617028 2.56819954 -28.71188748 2.14112678 -24.56713867 1.71826172 C-23.15978127 1.57402493 -21.7525512 1.42853959 -20.34545898 1.28173828 C-18.31266678 1.06988401 -16.2794456 0.86265536 -14.24609375 0.65625 C-12.41582642 0.46772461 -12.41582642 0.46772461 -10.54858398 0.27539062 C-7.01653381 0.00128312 -3.54108783 -0.04766467 0 0 Z " fill="#ED2429" transform="translate(92,373)"/>
<path d="M0 0 C1.70496537 1.62746694 3.37897032 3.28891311 5 5 C3.73849162 7.62757356 2.37563406 10.03959124 0.71484375 12.43359375 C0.27052002 13.07683594 -0.17380371 13.72007812 -0.6315918 14.3828125 C-1.33989136 15.39988281 -1.33989136 15.39988281 -2.0625 16.4375 C-2.5469458 17.13746094 -3.0313916 17.83742188 -3.53051758 18.55859375 C-4.52802162 19.99930605 -5.5266437 21.43924488 -6.52636719 22.87841797 C-7.92893827 24.89769277 -9.32841471 26.91906702 -10.7265625 28.94140625 C-12.81542856 31.96252026 -14.90690734 34.98181207 -17 38 C-19.93446886 36.58208437 -22.43332409 35.01667393 -25 33 C-23.62845496 30.04590299 -22.01136276 27.55991624 -20 25 C-21.38563197 21.65138941 -22.76027096 19.70985699 -26 18 C-29.42225898 18.2231908 -31.87964177 18.94483581 -35 20.375 C-38 21 -38 21 -39.7109375 20.0859375 C-41.375 18.75 -41.375 18.75 -44 16 C-44 15.34 -44 14.68 -44 14 C-38.38458535 11.66492974 -32.76136139 9.35025833 -27.12988281 7.05419922 C-25.21483035 6.27006024 -23.30204191 5.48036832 -21.39160156 4.68505859 C-18.64702656 3.54362319 -15.89496132 2.42232585 -13.140625 1.3046875 C-11.85916595 0.76423294 -11.85916595 0.76423294 -10.55181885 0.21286011 C-9.35102692 -0.26786453 -9.35102692 -0.26786453 -8.12597656 -0.75830078 C-7.42426331 -1.04698029 -6.72255005 -1.33565979 -5.99957275 -1.63308716 C-3.3247096 -2.12391283 -2.25221345 -1.46107671 0 0 Z " fill="#206BB5" transform="translate(200,580)"/>
<path d="M0 0 C5.60505859 -0.02475901 11.21008518 -0.04288802 16.81518555 -0.05493164 C18.72111567 -0.05995364 20.62704195 -0.06677248 22.53295898 -0.07543945 C25.27588856 -0.08759846 28.0187671 -0.09324971 30.76171875 -0.09765625 C32.03543587 -0.10539818 32.03543587 -0.10539818 33.33488464 -0.11329651 C37.35943048 -0.11367627 41.07253392 -0.0089224 45 1 C45 3.97 45 6.94 45 10 C39.39 10 33.78 10 28 10 C28.01160156 11.93746094 28.02320313 13.87492187 28.03515625 15.87109375 C28.04453221 18.39322821 28.05363262 20.9153637 28.0625 23.4375 C28.07087891 24.71689453 28.07925781 25.99628906 28.08789062 27.31445312 C28.09272461 29.13686523 28.09272461 29.13686523 28.09765625 30.99609375 C28.10551147 32.68496704 28.10551147 32.68496704 28.11352539 34.40795898 C28 37 28 37 27 38 C25.14712498 38.07226502 23.29166122 38.0838122 21.4375 38.0625 C20.42558594 38.05347656 19.41367187 38.04445312 18.37109375 38.03515625 C17.19740234 38.01775391 17.19740234 38.01775391 16 38 C15.97051509 34.85418698 15.95304084 31.70841037 15.9375 28.5625 C15.92493164 27.24475586 15.92493164 27.24475586 15.91210938 25.90039062 C15.89100893 20.18216923 16.26719943 14.67199185 17 9 C11.39 9 5.78 9 0 9 C0 6.03 0 3.06 0 0 Z " fill="#ED2A2F" transform="translate(351,56)"/>
<path d="M0 0 C2.49361571 1.20381448 4.68143083 2.45428722 7 4 C6.24859261 8.31577576 3.94916518 10.73278209 1.1796875 14 C-0.19940997 15.89305033 -0.19940997 15.89305033 0.17626953 17.93164062 C1.25829539 20.64857099 2.58363348 21.47235129 5 23.09375 C5.804375 23.64933594 6.60875 24.20492187 7.4375 24.77734375 C8.7059375 25.63005859 8.7059375 25.63005859 10 26.5 C11.67363894 27.62511398 13.340668 28.76014088 15 29.90625 C16.11375 30.65358398 16.11375 30.65358398 17.25 31.41601562 C19.27559561 33.24945094 19.73555586 34.30535201 20 37 C18.63510623 39.33370072 16.8580962 41.00594554 15 43 C11.59590531 42.37770996 9.44613199 41.09965425 6.671875 39.05859375 C5.87265625 38.47529297 5.0734375 37.89199219 4.25 37.29101562 C3.425 36.67935547 2.6 36.06769531 1.75 35.4375 C0.90953125 34.82197266 0.0690625 34.20644531 -0.796875 33.57226562 C-2.86873236 32.05368836 -4.93617964 30.52947228 -7 29 C-10.83342952 30.73549809 -12.40252938 32.60379407 -14.75 36.125 C-15.67039062 37.49011719 -15.67039062 37.49011719 -16.609375 38.8828125 C-17.06828125 39.58148438 -17.5271875 40.28015625 -18 41 C-20.31 39.35 -22.62 37.7 -25 36 C-24.06616394 32.26465576 -23.37469899 30.83293199 -21.15625 27.875 C-20.57319092 27.09108887 -19.99013184 26.30717773 -19.3894043 25.49951172 C-18.76590088 24.67467285 -18.14239746 23.84983398 -17.5 23 C-16.86940674 22.1558252 -16.23881348 21.31165039 -15.58911133 20.44189453 C-14.3221067 18.74727382 -13.05236548 17.05469544 -11.77978516 15.36425781 C-10.21556789 13.28635933 -8.65834246 11.20356724 -7.10546875 9.1171875 C-1.21661932 1.21661932 -1.21661932 1.21661932 0 0 Z " fill="#ED252A" transform="translate(128,167)"/>
<path d="M0 0 C2.97 0.33 5.94 0.66 9 1 C8.98839844 2.07121094 8.97679688 3.14242188 8.96484375 4.24609375 C8.95546701 5.64322743 8.94636669 7.04036299 8.9375 8.4375 C8.92912109 9.14455078 8.92074219 9.85160156 8.91210938 10.58007812 C8.90346412 12.38693559 8.94779989 14.19387603 9 16 C10.77191059 17.77191059 13.37632659 17.36060338 15.78515625 17.53515625 C16.95498047 17.62216797 18.12480469 17.70917969 19.33007812 17.79882812 C21.17762695 17.9293457 21.17762695 17.9293457 23.0625 18.0625 C24.29806641 18.15337891 25.53363281 18.24425781 26.80664062 18.33789062 C29.87081994 18.56267598 32.93524802 18.7831856 36 19 C36.125 26.625 36.125 26.625 35 30 C25.62122392 30.1598655 16.34809779 29.66433182 7 29 C7.01160156 29.81984375 7.02320312 30.6396875 7.03515625 31.484375 C7.04417969 32.56203125 7.05320312 33.6396875 7.0625 34.75 C7.07410156 35.81734375 7.08570312 36.8846875 7.09765625 37.984375 C7 41 7 41 6 45 C3.03 44.67 0.06 44.34 -3 44 C-2.33438417 29.30390312 -1.2333753 14.65867437 0 0 Z " fill="#ED2429" transform="translate(58,321)"/>
<path d="M0 0 C3.11476949 1.70181962 5.38869747 3.77739495 7 7 C7.52779267 13.2117137 7.74403643 18.758349 4 24 C-1.28451133 29.17177509 -4.9475675 30.40323118 -12.2265625 30.35546875 C-16.55436599 29.80077844 -18.14306829 28.23284378 -21 25 C-22.6728747 19.98137589 -23.03347349 14.72039882 -21.12890625 9.70703125 C-16.42775636 1.49157914 -9.4104599 -1.84184988 0 0 Z " fill="#1F6BB5" transform="translate(371,654)"/>
<path d="M0 0 C3.7952131 1.49097658 5.61042731 3.75700849 8 7 C6.58456098 10.32391657 4.93726359 12.17030047 2.15625 14.453125 C1.40472656 15.071875 0.65320313 15.690625 -0.12109375 16.328125 C-0.90613281 16.96234375 -1.69117188 17.5965625 -2.5 18.25 C-3.28503906 18.8996875 -4.07007813 19.549375 -4.87890625 20.21875 C-10.73493304 25 -10.73493304 25 -13 25 C-12.5153125 25.60585937 -12.030625 26.21171875 -11.53125 26.8359375 C-6.6875 32.890625 -1.84375 38.9453125 3 45 C0.52187506 48.45167403 -0.79606135 50.23163306 -5 51 C-16.33141013 37.89333562 -16.33141013 37.89333562 -21.625 31.4375 C-22.23601563 30.69371094 -22.84703125 29.94992188 -23.4765625 29.18359375 C-25.08804569 26.87380118 -26.06035286 24.64682784 -27 22 C-26.40574219 21.52691406 -25.81148437 21.05382812 -25.19921875 20.56640625 C-16.72315172 13.80400752 -8.31160175 6.96377444 0 0 Z " fill="#ED2429" transform="translate(596,158)"/>
<path d="M0 0 C6.02018787 1.14086497 11.2270858 4.84834767 16.5 7.8125 C17.64082031 8.44220703 18.78164063 9.07191406 19.95703125 9.72070312 C21.05402344 10.33494141 22.15101563 10.94917969 23.28125 11.58203125 C24.28220703 12.14124268 25.28316406 12.7004541 26.31445312 13.27661133 C28.928412 14.95406003 30.90415473 16.72067482 33 19 C31.35 21.97 29.7 24.94 28 28 C27.36835937 27.64808594 26.73671875 27.29617188 26.0859375 26.93359375 C18.48779743 22.74038388 10.77633663 18.8496716 3 15 C-2.94 24.9 -2.94 24.9 -9 35 C-14 34 -14 34 -17 32 C-16.4092818 27.86544256 -15.03103298 24.94896572 -12.91015625 21.3671875 C-12.29076172 20.31402344 -11.67136719 19.26085937 -11.03320312 18.17578125 C-10.05770508 16.54189453 -10.05770508 16.54189453 -9.0625 14.875 C-8.41603516 13.77800781 -7.76957031 12.68101562 -7.10351562 11.55078125 C-2.45459906 3.68189858 -2.45459906 3.68189858 0 0 Z " fill="#ED2429" transform="translate(612,490)"/>
<path d="M0 0 C3.11390099 2.90933815 5.37613792 5.89325101 7.63671875 9.5 C8.62575195 11.0778125 8.62575195 11.0778125 9.63476562 12.6875 C10.65086914 14.3271875 10.65086914 14.3271875 11.6875 16 C12.37650391 17.093125 13.06550781 18.18625 13.77539062 19.3125 C14.43087891 20.364375 15.08636719 21.41625 15.76171875 22.5 C16.35944092 23.4590625 16.95716309 24.418125 17.57299805 25.40625 C18.82096706 27.67458582 19.54581594 29.47236696 20 32 C19.22305786 32.49028687 19.22305786 32.49028687 18.43041992 32.99047852 C16.88703428 33.96453624 15.34374866 34.93875243 13.80053711 35.91308594 C12.05559682 37.01453568 10.31031558 38.11544545 8.56469727 39.21582031 C4.81857897 41.57898814 1.07365253 43.94247357 -2.640625 46.35546875 C-3.60484375 46.98066406 -4.5690625 47.60585938 -5.5625 48.25 C-6.38878906 48.79140625 -7.21507813 49.3328125 -8.06640625 49.890625 C-10 51 -10 51 -12 51 C-13.32421875 49.35546875 -13.32421875 49.35546875 -14.6875 47.1875 C-15.14511719 46.47980469 -15.60273437 45.77210938 -16.07421875 45.04296875 C-17 43 -17 43 -16 40 C-14.08227539 38.58959961 -14.08227539 38.58959961 -11.59765625 37.15234375 C-10.70755859 36.62962891 -9.81746094 36.10691406 -8.90039062 35.56835938 C-7.49563477 34.76108398 -7.49563477 34.76108398 -6.0625 33.9375 C-4.21858042 32.86580935 -2.37606322 31.79170112 -0.53515625 30.71484375 C0.69642212 30.00509399 0.69642212 30.00509399 1.95288086 29.28100586 C4.11501662 28.03453467 4.11501662 28.03453467 6 26 C5.63124756 25.44538086 5.26249512 24.89076172 4.88256836 24.31933594 C3.22107827 21.80461981 1.5792036 19.27767325 -0.0625 16.75 C-0.93358398 15.44095703 -0.93358398 15.44095703 -1.82226562 14.10546875 C-2.36689453 13.26113281 -2.91152344 12.41679687 -3.47265625 11.546875 C-3.98062744 10.77182617 -4.48859863 9.99677734 -5.01196289 9.19824219 C-6 7 -6 7 -5.81811523 4.82519531 C-4.59957402 2.10665932 -2.58030751 1.32323462 0 0 Z " fill="#ED2529" transform="translate(123,495)"/>
<path d="M0 0 C1.25425781 0.02707031 2.50851562 0.05414062 3.80078125 0.08203125 C4.75339844 0.11683594 5.70601563 0.15164063 6.6875 0.1875 C6.3575 2.8275 6.0275 5.4675 5.6875 8.1875 C4.98882812 8.17589844 4.29015625 8.16429687 3.5703125 8.15234375 C2.66023438 8.14332031 1.75015625 8.13429688 0.8125 8.125 C-0.09242188 8.11339844 -0.99734375 8.10179687 -1.9296875 8.08984375 C-4.3293585 8.02500743 -4.3293585 8.02500743 -6.3125 9.1875 C-6.3125 10.8375 -6.3125 12.4875 -6.3125 14.1875 C-5.63703125 14.50203125 -4.9615625 14.8165625 -4.265625 15.140625 C5.76400273 19.95252732 5.76400273 19.95252732 7.6875 23.1875 C8.41851036 27.29677183 8.63670774 31.24465351 6.76953125 35.06640625 C3.98552798 38.66128426 0.96230286 40.81345622 -3.3125 42.1875 C-14.79956897 42.94396552 -14.79956897 42.94396552 -18.3125 41.1875 C-17.6525 38.5475 -16.9925 35.9075 -16.3125 33.1875 C-15.04792969 33.20490234 -15.04792969 33.20490234 -13.7578125 33.22265625 C-12.66210938 33.23167969 -11.56640625 33.24070312 -10.4375 33.25 C-9.34695313 33.26160156 -8.25640625 33.27320313 -7.1328125 33.28515625 C-4.36072454 33.38494303 -4.36072454 33.38494303 -2.3125 32.1875 C-2.3125 30.5375 -2.3125 28.8875 -2.3125 27.1875 C-2.98796875 26.87296875 -3.6634375 26.5584375 -4.359375 26.234375 C-14.38900273 21.42247268 -14.38900273 21.42247268 -16.3125 18.1875 C-17.08407466 13.36105425 -17.08543622 9.53298157 -14.625 5.25 C-9.76969202 0.91959018 -6.55728183 -0.18384902 0 0 Z " fill="#206BB5" transform="translate(412.3125,639.8125)"/>
<path d="M0 0 C4.59719817 1.71268167 7.55412193 3.69525459 10 8 C10.07317145 12.17077279 9.65572297 14.20083763 7 17.4375 C2.88422633 19.58113212 -0.4473389 19.67475556 -5 19 C-7.51225266 18.19626286 -9.63823352 17.20600842 -12 16 C-11.66334085 18.48248124 -11.66334085 18.48248124 -10 21 C-7.09244107 22.36075884 -4.10712212 23.21362959 -1 24 C-1.33 25.98 -1.66 27.96 -2 30 C-7.98724794 30.49893733 -11.97720707 29.32310595 -17 26 C-20.27560816 23.05195266 -20.91551749 21.57260368 -21.5625 17.1875 C-21.28457716 12.28679399 -19.23131148 8.6251778 -16 5 C-13.7217375 3.30352556 -11.59523639 2.22416811 -9 1 C-5.92805092 -0.53597454 -3.39755707 -0.2265038 0 0 Z " fill="#226DB6" transform="translate(258,630)"/>
<path d="M0 0 C3.57632467 2.51103647 4.78325846 4.04272488 5.75 8.3125 C4.68160973 13.56541883 1.73923057 16.31681786 -2 20 C-2.57105469 20.57234375 -3.14210938 21.1446875 -3.73046875 21.734375 C-4.14941406 22.15203125 -4.56835938 22.5696875 -5 23 C-2.21061788 23.41890218 -2.21061788 23.41890218 1 23 C3.87640616 20.62499209 3.87640616 20.62499209 6 18 C7.9375 18.75 7.9375 18.75 10 20 C10.62890625 22.078125 10.62890625 22.078125 11 24 C9.71064081 25.14842923 8.41843421 26.29366227 7.125 27.4375 C6.40570312 28.07558594 5.68640625 28.71367188 4.9453125 29.37109375 C1.26274293 32.45469116 -1.84583557 32.39767048 -6.5234375 32.34375 C-9 32 -9 32 -11.9375 29.875 C-16.4313705 23.61081688 -18.11774976 18.69865849 -17 11 C-13.57160076 4.01134 -8.22375419 -1.49522803 0 0 Z " fill="#216CB5" transform="translate(521,609)"/>
<path d="M0 0 C3.0879956 9.26398679 2.14457114 20.32979681 2 30 C-0.31 30.33 -2.62 30.66 -5 31 C-5.33 30.01 -5.66 29.02 -6 28 C-6.61875 28.804375 -7.2375 29.60875 -7.875 30.4375 C-10.72041155 33.86873158 -11.36553688 33.92836707 -15.875 34.4375 C-19.28315378 34.35708984 -19.79313956 34.19094809 -22.4375 31.75 C-26.3750614 24.39525976 -25.16138718 14.10522297 -25 6 C-22.36 5.67 -19.72 5.34 -17 5 C-16.86722656 6.27617188 -16.73445313 7.55234375 -16.59765625 8.8671875 C-16.41947335 10.53647996 -16.24107686 12.20574964 -16.0625 13.875 C-15.97548828 14.71675781 -15.88847656 15.55851563 -15.79882812 16.42578125 C-15.71181641 17.23144531 -15.62480469 18.03710938 -15.53515625 18.8671875 C-15.456604 19.61081543 -15.37805176 20.35444336 -15.29711914 21.12060547 C-15.08362653 23.08446316 -15.08362653 23.08446316 -14 25 C-12.68 25 -11.36 25 -10 25 C-8.79729036 22.59458071 -8.79683337 20.89633409 -8.68359375 18.2109375 C-8.64169922 17.26992188 -8.59980469 16.32890625 -8.55664062 15.359375 C-8.51732422 14.37453125 -8.47800781 13.3896875 -8.4375 12.375 C-8.39431641 11.38242187 -8.35113281 10.38984375 -8.30664062 9.3671875 C-8.20038931 6.91160162 -8.09835036 4.45591297 -8 2 C-4.91190305 0.23537317 -3.76687864 0 0 0 Z " fill="#216CB5" transform="translate(451,642)"/>
<path d="M0 0 C5.75884542 -0.87511867 11.66672039 -0.38594088 17 2 C18 3 18 3 18.1875 6.25 C18.09651569 13.42476271 17.64352413 21.69272294 14 28 C12.10448978 28.05441656 10.2085208 28.09298035 8.3125 28.125 C7.25675781 28.14820313 6.20101562 28.17140625 5.11328125 28.1953125 C1.94477177 27.99653524 -0.18862338 27.44874543 -3 26 C-6.16058707 19.67882586 -3.45256324 9.55446747 -2 3 C-1.34 2.01 -0.68 1.02 0 0 Z " fill="#FEF8F8" transform="translate(650,393)"/>
<path d="M0 0 C6.83195996 0.23159186 18.92245543 1.92245543 24 7 C24.48723229 12.84678744 23.23808069 17.59613678 21 23 C20 24 20 24 17.91796875 24.01953125 C10.42318638 23.45125734 0.54364702 22.54364702 -5 17 C-5.75549088 10.83015778 -3.84806147 6.33010702 -1 1 C-0.67 0.67 -0.34 0.34 0 0 Z " fill="#FEFAFA" transform="translate(439,74)"/>
<path d="M0 0 C5.91647283 0.53786117 10.04100037 2.10336498 15.21484375 5.01953125 C15.71252457 10.69309265 13.9922543 14.74770624 11.77734375 19.83203125 C11.45185547 20.60740234 11.12636719 21.38277344 10.79101562 22.18164062 C8.38686123 27.84751377 8.38686123 27.84751377 7.21484375 29.01953125 C0.78376262 29.58366117 -3.31309298 28.41739598 -8.78515625 25.01953125 C-9.11515625 24.68953125 -9.44515625 24.35953125 -9.78515625 24.01953125 C-9.37682357 18.19441036 -8.05575012 13.43185029 -5.78515625 8.08203125 C-5.511875 7.41107422 -5.23859375 6.74011719 -4.95703125 6.04882812 C-2.47282148 0.02705494 -2.47282148 0.02705494 0 0 Z " fill="#FEF9F9" transform="translate(639.78515625,450.98046875)"/>
<path d="M0 0 C1.45823212 -0.0270043 2.91660675 -0.04639787 4.375 -0.0625 C5.18710937 -0.07410156 5.99921875 -0.08570313 6.8359375 -0.09765625 C9 0 9 0 11 1 C10.4881688 13.47809156 8.90054893 25.66436164 7 38 C3.04 37.67 -0.92 37.34 -5 37 C-1.80851064 10.89361702 -1.80851064 10.89361702 0 0 Z " fill="#ED272C" transform="translate(405,59)"/>
<path d="M0 0 C2.78729102 1.14136873 5.39808071 2.48615605 8 4 C8 7 8 7 6 10 C2.7 9.01 -0.6 8.02 -4 7 C-2.95099192 10.05960689 -2.02814646 11.96944098 0.1875 14.375 C2 17 2 17 2 20.5625 C0.92933011 24.24292775 -0.02831013 25.65866859 -3 28 C-6.9000006 29.9500003 -11.22924036 29.58822136 -15.26953125 28.24609375 C-20.69950331 25.75124172 -20.69950331 25.75124172 -21.8125 22.96875 C-22 21 -22 21 -20.5625 19.25 C-20.046875 18.8375 -19.53125 18.425 -19 18 C-17.948125 18.433125 -17.948125 18.433125 -16.875 18.875 C-13.94547497 20.02133588 -10.99078347 21.02625654 -8 22 C-9.87702327 17.10437307 -9.87702327 17.10437307 -13 13 C-13.40464528 9.91457976 -13.6395404 7.95999673 -13 5 C-9.0316744 0.3541554 -6.0237312 -0.93471691 0 0 Z " fill="#246EB6" transform="translate(284,640)"/>
<path d="M0 0 C-0.33 2.31 -0.66 4.62 -1 7 C1.475 7.495 1.475 7.495 4 8 C3.67 10.31 3.34 12.62 3 15 C0.69 15 -1.62 15 -4 15 C-4.12375 15.804375 -4.2475 16.60875 -4.375 17.4375 C-5.11554163 21.65858729 -6.04401126 25.82335017 -7 30 C-5.68 30 -4.36 30 -3 30 C-3.33 32.31 -3.66 34.62 -4 37 C-8.36600154 37.2960001 -11.05246687 37.42542304 -15.0625 35.625 C-17.26706061 32.63817595 -17.2636924 31.9432631 -17 28.375 C-16.19112856 23.09770282 -14.70837449 18.04991202 -13 13 C-13.66 13 -14.32 13 -15 13 C-14.67 10.69 -14.34 8.38 -14 6 C-12.68 6 -11.36 6 -10 6 C-9.67 4.35 -9.34 2.7 -9 1 C-5.846632 0.29925156 -3.27275026 0 0 0 Z " fill="#256FB7" transform="translate(345,646)"/>
<path d="M0 0 C0.8971875 0.309375 0.8971875 0.309375 1.8125 0.625 C2.1425 2.275 2.4725 3.925 2.8125 5.625 C2.008125 6.0375 1.20375 6.45 0.375 6.875 C-2.32859718 8.35952331 -2.32859718 8.35952331 -3 10.8125 C-3.061875 11.410625 -3.12375 12.00875 -3.1875 12.625 C-2.5275 12.46 -1.8675 12.295 -1.1875 12.125 C8.14441489 10.56968085 8.14441489 10.56968085 12.875 13.5625 C15.21062552 17.25429518 15.32630178 19.12062726 14.59375 23.33984375 C13.02465651 27.92944222 9.94877287 31.35982869 5.80078125 33.81640625 C3.8125 34.625 3.8125 34.625 0.8125 34.625 C0.1525 32.645 -0.5075 30.665 -1.1875 28.625 C0.60286458 27.71354167 2.39322917 26.80208333 4.18359375 25.890625 C6.22886484 24.30149351 6.43795523 23.13603257 6.8125 20.625 C5.49185547 20.83769531 5.49185547 20.83769531 4.14453125 21.0546875 C-5.07443578 22.22112728 -5.07443578 22.22112728 -8.1640625 20.56640625 C-10.26323763 18.20329974 -11.14864359 15.78749046 -11.875 12.75 C-10.78114821 7.77794643 -5.95833591 -1.02142901 0 0 Z " fill="#236DB6" transform="translate(557.1875,576.375)"/>
<path d="M0 0 C5.57480829 1.11496166 10.88204122 2.71254456 16.3125 4.375 C17.31990234 4.67921875 18.32730469 4.9834375 19.36523438 5.296875 C24.99431093 7.0131016 30.51617287 8.86412468 36 11 C35.49287967 14.71888239 34.88391785 17.73454239 33 21 C26.98640571 20.4402784 21.74796088 19.12589181 16.0625 17.125 C15.31548828 16.86847656 14.56847656 16.61195313 13.79882812 16.34765625 C12.2986921 15.83251031 10.7994893 15.31463809 9.30126953 14.79394531 C5.5445871 13.49787792 1.7718824 12.25105136 -2 11 C-1.34 7.37 -0.68 3.74 0 0 Z " fill="#ED262A" transform="translate(70,271)"/>
<path d="M0 0 C3.5625 1.5 3.5625 1.5 6 3 C5.49396008 5.16874252 5.00016187 6.99967627 4 9 C0.7 8.34 -2.6 7.68 -6 7 C-4.92415792 10.42313388 -4.05235405 11.95373363 -1.3125 14.375 C1 17 1 17 1.125 20.5 C-0.23987215 24.74626892 -1.31395655 26.46584513 -5 29 C-11.19574801 30.2391496 -16.3564491 28.46264039 -22 26 C-22 22 -22 22 -20 19 C-19.29875 19.309375 -18.5975 19.61875 -17.875 19.9375 C-14.91063343 21.03302678 -12.12301892 21.56422992 -9 22 C-10.00069607 18.9979118 -10.68464925 17.26897564 -13.125 15.1875 C-15.4116337 12.51976069 -15.70604722 10.46121812 -15.50390625 6.97265625 C-14.78696155 4.16601226 -13.25891954 2.48732904 -10.91015625 0.84375 C-7.29692904 -0.75227674 -3.84397903 -0.6577932 0 0 Z " fill="#226DB6" transform="translate(310,647)"/>
<path d="M0 0 C2.03435531 3.72965139 3 5.66905042 3 10 C-1.35379399 12.16721008 -5.71370377 14.32137418 -10.07983398 16.46362305 C-11.56466793 17.19443087 -13.04775805 17.92879278 -14.52905273 18.66674805 C-16.65682278 19.72600284 -18.79050746 20.77237757 -20.92578125 21.81640625 C-21.58838455 22.14967422 -22.25098785 22.4829422 -22.93367004 22.8263092 C-27.65838488 25.11387171 -27.65838488 25.11387171 -31 24 C-34.01631227 19.15235529 -34.01631227 19.15235529 -33.97192383 16.01660156 C-32.41738826 12.79116479 -29.87436943 12.0632746 -26.69921875 10.546875 C-26.06643509 10.24179016 -25.43365143 9.93670532 -24.7816925 9.62237549 C-23.44241639 8.98038373 -22.09978618 8.34534938 -20.75415039 7.71679688 C-18.69812972 6.75497267 -16.65442963 5.77017318 -14.61132812 4.78125 C-4.57932091 0 -4.57932091 0 0 0 Z " fill="#ED2429" transform="translate(118,481)"/>
<path d="M0 0 C0.99 0.33 1.98 0.66 3 1 C3.33 2.65 3.66 4.3 4 6 C2.515 6.8971875 2.515 6.8971875 1 7.8125 C0.01 8.534375 -0.98 9.25625 -2 10 C-2 10.99 -2 11.98 -2 13 C-1.26394531 12.95359375 -0.52789063 12.9071875 0.23046875 12.859375 C8.08389467 12.56889161 8.08389467 12.56889161 12.1875 14.5 C14.26696587 17.36822879 14.66100287 19.44271505 14.41796875 22.9765625 C13.43502312 27.73512171 10.73000066 30.4097867 7.0625 33.375 C3.97696486 35.01222273 2.41720494 35.40202411 -1 35 C-1.33 33.02 -1.66 31.04 -2 29 C3.75 26 3.75 26 6 26 C5.67 24.68 5.34 23.36 5 22 C4.25234375 22.04640625 3.5046875 22.0928125 2.734375 22.140625 C-5.2708621 22.43401065 -5.2708621 22.43401065 -8.625 20.4375 C-10.49349837 17.12516199 -11 14.81421412 -11 11 C-8.46980477 6.03692473 -4.99947472 2.49973736 0 0 Z " fill="#206BB5" transform="translate(538,592)"/>
<path d="M0 0 C1.9960826 1.51814733 2.71056664 2.97338242 3.6640625 5.265625 C2.4140625 6.828125 2.4140625 6.828125 0.6640625 8.265625 C-1.66082631 7.9838203 -3.24486585 7.31116082 -5.3359375 6.265625 C-9.75018655 5.76589869 -11.65539576 5.75883859 -15.2734375 8.453125 C-17.48256888 11.46557689 -17.85412748 12.63829512 -17.3359375 16.265625 C-13.8709375 18.245625 -13.8709375 18.245625 -10.3359375 20.265625 C-12.0859375 25.140625 -12.0859375 25.140625 -14.3359375 26.265625 C-20.39403691 24.57730221 -24.00596183 22.88495894 -27.3359375 17.265625 C-28.3891143 12.5263294 -27.9388698 8.57886124 -25.3359375 4.453125 C-18.41848369 -3.92576271 -9.25240622 -4.6446342 0 0 Z " fill="#206CB5" transform="translate(241.3359375,621.734375)"/>
<path d="M0 0 C0 2.31 0 4.62 0 7 C-0.94875 7.4125 -1.8975 7.825 -2.875 8.25 C-6.55098191 10.30213634 -6.55098191 10.30213634 -8 14 C-8.36914086 17.54375229 -8.4203453 19.33445327 -6.5 22.375 C-6.005 22.91125 -5.51 23.4475 -5 24 C0.3086849 23.41825155 0.3086849 23.41825155 5 21 C5.99 22.98 6.98 24.96 8 27 C3.93457391 30.81559544 0.52767648 33.43901407 -5.1875 33.6875 C-8.90540861 33.453346 -9.89937135 33.07547149 -13 30.75 C-17.10363097 25.10750742 -17.67094502 20.90114878 -17 14 C-15.00793909 7.24912692 -11.7313557 4.30466087 -5.875 0.6875 C-4 0 -4 0 0 0 Z " fill="#1F6BB5" transform="translate(499,621)"/>
<path d="M0 0 C0 2.31 0 4.62 0 7 C-0.94875 7.433125 -1.8975 7.86625 -2.875 8.3125 C-6.20041937 9.79302201 -6.20041937 9.79302201 -8 13 C-8.31478577 14.95214625 -8.31478577 14.95214625 -8.25 17 C-8.25515625 17.680625 -8.2603125 18.36125 -8.265625 19.0625 C-8.09917603 21.32416007 -8.09917603 21.32416007 -6 24 C-4.39125 23.7525 -4.39125 23.7525 -2.75 23.5 C1 23 1 23 5 23 C5.33 24.65 5.66 26.3 6 28 C0.46197592 31.81508325 -3.16348564 33.69523875 -10 33 C-13.78140122 30.85147658 -16.36481402 28.02795813 -18 24 C-18.83663633 18.12181489 -18.01811869 13.16000937 -15 8 C-10.60862868 3.39648514 -6.52255889 0 0 0 Z " fill="#1E6AB4" transform="translate(476,632)"/>
<path d="M0 0 C3.94653497 1.82536261 5.77942376 3.15623958 7.51171875 7.23828125 C5.82421875 8.86328125 5.82421875 8.86328125 3.51171875 10.23828125 C1.11908468 9.57056942 -0.7092551 9.0173074 -2.48828125 7.23828125 C-6.51758632 6.85084807 -8.84950289 6.8849145 -12.42578125 8.86328125 C-14.70751607 11.11457131 -14.70751607 11.11457131 -15.17578125 14.23828125 C-14.74801549 17.54148881 -14.74801549 17.54148881 -11.48828125 19.61328125 C-10.49828125 20.14953125 -9.50828125 20.68578125 -8.48828125 21.23828125 C-9.47828125 23.71328125 -9.47828125 23.71328125 -10.48828125 26.23828125 C-16.64251531 25.86902721 -19.21531626 24.40950898 -23.48828125 20.23828125 C-25.35389292 16.5070579 -25.0437248 12.30113241 -24.48828125 8.23828125 C-19.76803682 -1.2217937 -9.34482051 -2.86065934 0 0 Z " fill="#1F6BB5" transform="translate(216.48828125,606.76171875)"/>
<path d="M0 0 C2 3 2 3 2.609375 5.3203125 C1.59032553 9.80151722 -2.05485642 11.45845281 -5.75 13.875 C-6.47960937 14.38546875 -7.20921875 14.8959375 -7.9609375 15.421875 C-13.3880115 19.07281569 -13.3880115 19.07281569 -16.12988281 18.74658203 C-18.74097622 17.70418991 -19.6700435 16.44991987 -21 14 C-20.72134271 11.55963769 -20.36393633 10.35386197 -18.58886719 8.62792969 C-17.99750977 8.22993164 -17.40615234 7.83193359 -16.796875 7.421875 C-16.14589844 6.98359375 -15.49492187 6.5453125 -14.82421875 6.09375 C-13.79748047 5.42859375 -13.79748047 5.42859375 -12.75 4.75 C-12.08097656 4.29109375 -11.41195312 3.8321875 -10.72265625 3.359375 C-4.19546708 -0.94933927 -4.19546708 -0.94933927 0 0 Z " fill="#FEF7F7" transform="translate(212,110)"/>
<path d="M0 0 C2.8125 0.4375 2.8125 0.4375 3.8125 1.4375 C4.39434339 6.85311925 4.27562528 11.00469964 0.8125 15.4375 C-0.1875 16.4375 -0.1875 16.4375 -3.25 16.5 C-4.219375 16.479375 -5.18875 16.45875 -6.1875 16.4375 C-7.79777837 13.21694325 -7.64664719 9.92960536 -7.1875 6.4375 C-4.48443343 0.61551047 -4.48443343 0.61551047 0 0 Z " fill="#F7FAFC" transform="translate(365.1875,660.5625)"/>
<path d="M0 0 C-0.77904328 10.55808656 -0.77904328 10.55808656 -3 15 C-6.23861303 13.55575365 -8.61969163 11.74227753 -11.25 9.375 C-11.95640625 8.74335938 -12.6628125 8.11171875 -13.390625 7.4609375 C-13.92171875 6.97882813 -14.4528125 6.49671875 -15 6 C-12.75848118 3.75848118 -10.9932888 3.03698675 -8.0625 1.875 C-7.18722656 1.52179688 -6.31195312 1.16859375 -5.41015625 0.8046875 C-3 0 -3 0 0 0 Z " fill="#FDF1F1" transform="translate(563,137)"/>
<path d="M0 0 C0.66 0 1.32 0 2 0 C3.62742807 1.94762601 5.1364476 3.88841459 6.625 5.9375 C7.25535156 6.78344727 7.25535156 6.78344727 7.8984375 7.64648438 C11 11.85071276 11 11.85071276 11 13 C6.05 13.66 1.1 14.32 -4 15 C-3.15393802 9.07756617 -2.15984041 5.35264798 0 0 Z " fill="#FDEFF0" transform="translate(316,69)"/>
<path d="M0 0 C0.9075 0.309375 1.815 0.61875 2.75 0.9375 C5.16563338 1.7272263 7.52780285 2.42949297 10 3 C9.814375 3.763125 9.62875 4.52625 9.4375 5.3125 C8.77180827 8.08967375 8.77180827 8.08967375 10 11 C7 12 4 13 1 14 C1 12.68 1 11.36 1 10 C-1.475 9.01 -1.475 9.01 -4 8 C-3.525625 7.608125 -3.05125 7.21625 -2.5625 6.8125 C-0.64820367 4.59191626 -0.38733012 2.86624291 0 0 Z " fill="#246EB6" transform="translate(587,558)"/>
<path d="M0 0 C0.8353125 0.495 0.8353125 0.495 1.6875 1 C4.30284522 2.1309601 6.1806646 2.15662974 9 2 C8.979375 2.928125 8.95875 3.85625 8.9375 4.8125 C8.84230396 8.02286011 8.84230396 8.02286011 10 11 C8.02 11 6.04 11 4 11 C3.34 12.32 2.68 13.64 2 15 C0 13 0 13 -1 10 C-3.00016466 8.79117904 -3.00016466 8.79117904 -5 8 C-4.360625 7.608125 -3.72125 7.21625 -3.0625 6.8125 C-0.56221181 4.61527704 -0.35049575 3.24208567 0 0 Z " fill="#256FB7" transform="translate(143,558)"/>
<path d="M0 0 C0.66 0.33 1.32 0.66 2 1 C0.93249206 2.51130338 -0.15460282 4.00878703 -1.25 5.5 C-1.85328125 6.3353125 -2.4565625 7.170625 -3.078125 8.03125 C-3.71234375 8.6809375 -4.3465625 9.330625 -5 10 C-6.32 10 -7.64 10 -9 10 C-10.75 8 -10.75 8 -12 6 C-10.04669132 4.96958487 -8.08718472 3.9509107 -6.125 2.9375 C-5.03445312 2.36902344 -3.94390625 1.80054688 -2.8203125 1.21484375 C-1.42425781 0.61349609 -1.42425781 0.61349609 0 0 Z " fill="#ECF2F8" transform="translate(192,587)"/>
<path d="M0 0 C0.94875 0.04125 1.8975 0.0825 2.875 0.125 C3.535 1.445 4.195 2.765 4.875 4.125 C3.875 5.125 3.875 5.125 1 5.375 C-2.125 5.125 -2.125 5.125 -4 3.625 C-4.37125 3.13 -4.7425 2.635 -5.125 2.125 C-3.125 0.125 -3.125 0.125 0 0 Z " fill="#EBF2F8" transform="translate(255.125,636.875)"/>
<path d="M0 0 C-0.34069235 3.15140423 -0.58076841 4.60781561 -2.9375 6.8125 C-5 8 -5 8 -7 8 C-7.36275695 3.52599758 -7.36275695 3.52599758 -5.75 1.1875 C-4 0 -4 0 0 0 Z " fill="#E9F0F7" transform="translate(518,617)"/>
</svg>
