<?xml version="1.0" standalone="no"?>
<!DOCTYPE svg PUBLIC "-//W3C//DTD SVG 20010904//EN"
 "http://www.w3.org/TR/2001/REC-SVG-20010904/DTD/svg10.dtd">
<svg version="1.0" xmlns="http://www.w3.org/2000/svg"
 width="734.000000pt" height="750.000000pt" viewBox="0 0 734.000000 750.000000"
 preserveAspectRatio="xMidYMid meet">

<g transform="translate(0.000000,750.000000) scale(0.100000,-0.100000)"
fill="#000000" stroke="none">
<path d="M3385 7143 c-948 -85 -1808 -565 -2380 -1328 -539 -719 -760 -1601
-629 -2505 130 -900 668 -1750 1429 -2260 432 -289 876 -462 1390 -540 179
-28 590 -38 787 -20 653 59 1272 309 1793 726 141 113 386 358 499 499 406
510 644 1076 722 1720 23 191 23 569 0 760 -78 644 -316 1210 -722 1720 -113
141 -358 386 -499 499 -522 416 -1120 659 -1784 726 -95 9 -512 11 -606 3z
m683 -48 c646 -82 1226 -332 1719 -742 125 -104 367 -350 465 -473 387 -487
621 -1037 705 -1660 25 -190 25 -620 0 -810 -88 -652 -343 -1231 -759 -1725
-104 -124 -341 -354 -468 -455 -290 -231 -628 -416 -981 -538 -798 -276 -1663
-234 -2437 116 -355 161 -678 387 -967 677 -538 537 -861 1205 -951 1965 -23
195 -23 535 0 730 75 636 312 1203 712 1705 112 140 357 386 499 499 524 419
1139 666 1810 726 140 12 506 4 653 -15z"/>
<path d="M3520 6928 c0 -9 -3 -30 -6 -47 l-6 -31 87 0 88 0 -6 -140 -5 -140
53 0 52 0 7 53 c3 28 6 89 6 135 l0 82 79 0 78 0 7 41 c4 23 5 43 3 45 -1 2
-101 6 -220 10 -191 6 -217 5 -217 -8z"/>
<path d="M3152 6896 c-37 -6 -67 -17 -71 -26 -18 -34 -133 -371 -129 -376 3
-3 29 -2 57 2 49 6 52 8 63 45 6 22 14 39 17 39 3 0 57 9 120 20 l114 19 16
-21 c9 -12 19 -26 22 -31 4 -5 32 -6 63 -2 43 6 56 11 52 21 -8 22 -247 324
-255 323 -3 -1 -34 -7 -69 -13z m74 -151 l46 -60 -63 -12 c-106 -20 -101 -24
-72 62 14 42 29 75 34 73 4 -2 29 -30 55 -63z"/>
<path d="M4056 6899 c-14 -41 -48 -341 -40 -348 5 -5 28 -11 51 -14 34 -4 43
-2 47 11 10 35 49 342 44 347 -2 3 -26 8 -51 11 -35 5 -48 3 -51 -7z"/>
<path d="M4323 6850 c-28 -12 -57 -68 -83 -161 -26 -96 -25 -113 8 -150 22
-25 51 -38 157 -70 72 -22 153 -42 182 -45 48 -6 54 -4 81 23 30 30 82 168 82
218 0 38 -17 73 -46 91 -31 21 -258 91 -317 98 -23 3 -52 1 -64 -4z m193 -116
c117 -33 129 -45 113 -110 -20 -82 -35 -104 -71 -104 -38 0 -165 36 -195 56
-27 17 -30 53 -8 114 28 81 32 82 161 44z"/>
<path d="M2703 6792 c-24 -9 -43 -19 -43 -22 0 -4 22 -62 50 -130 27 -68 49
-125 47 -126 -1 -1 -71 38 -156 86 l-153 89 -52 -21 c-28 -11 -63 -25 -78 -30
-16 -6 -28 -15 -28 -22 0 -6 25 -75 56 -151 31 -77 60 -150 65 -162 8 -22 9
-22 54 -6 25 10 45 20 45 23 0 4 -22 62 -50 130 -27 68 -49 125 -47 126 1 2
43 -21 92 -50 50 -29 119 -68 155 -88 l65 -36 81 32 81 31 -64 165 c-35 91
-67 168 -71 171 -4 4 -26 -1 -49 -9z"/>
<path d="M4836 6528 c-47 -88 -83 -164 -80 -169 3 -5 22 -18 42 -28 l38 -19
63 119 c35 65 67 119 70 119 3 0 20 -78 36 -172 l30 -173 75 -41 c41 -23 78
-39 82 -35 9 9 168 306 168 314 0 9 -61 47 -76 47 -6 0 -37 -48 -68 -107 -32
-60 -62 -112 -66 -117 -8 -8 -11 2 -52 219 l-23 120 -77 41 -76 41 -86 -159z"/>
<path d="M2090 6509 c-52 -20 -329 -212 -323 -223 14 -24 186 -282 193 -289 8
-9 90 39 90 52 0 3 -9 20 -20 36 -11 17 -20 33 -20 38 0 4 41 34 91 67 97 64
106 65 138 17 l17 -26 46 30 47 31 -26 39 c-28 42 -51 54 -90 44 -24 -6 -24
-5 -9 17 9 12 16 32 16 43 0 32 -56 114 -86 125 -30 12 -31 12 -64 -1z m39
-130 c11 -18 17 -38 14 -46 -5 -12 -93 -74 -179 -126 -14 -8 -69 72 -57 83 15
15 187 120 195 120 5 0 17 -14 27 -31z"/>
<path d="M3480 6371 c-338 -29 -640 -113 -940 -262 -259 -129 -474 -283 -675
-484 -413 -412 -670 -950 -735 -1530 -13 -116 -13 -444 0 -560 65 -580 322
-1116 735 -1530 588 -590 1425 -855 2253 -715 236 40 455 112 687 225 508 248
921 661 1170 1170 125 255 194 473 237 750 18 115 22 182 22 380 0 198 -4 265
-22 380 -44 277 -113 497 -237 750 -200 406 -493 742 -871 998 -321 217 -702
361 -1085 411 -144 19 -413 27 -539 17z m546 -54 c480 -77 877 -250 1233 -537
126 -102 337 -319 432 -445 267 -356 439 -783 494 -1225 19 -159 19 -431 0
-590 -56 -450 -223 -863 -494 -1225 -95 -125 -306 -343 -432 -444 -473 -382
-1058 -578 -1659 -558 -345 12 -646 81 -960 221 -414 185 -807 519 -1064 906
-217 326 -355 697 -408 1100 -16 122 -16 468 0 590 39 291 119 557 246 815
135 273 267 456 486 675 332 332 732 558 1190 670 97 23 236 46 390 64 75 9
459 -4 546 -17z"/>
<path d="M3587 5066 c-93 -34 -157 -107 -177 -202 -35 -170 93 -324 268 -324
153 0 260 102 270 257 4 64 1 79 -22 127 -62 126 -210 188 -339 142z"/>
<path d="M1817 4886 c99 -81 253 -305 359 -521 144 -296 219 -569 279 -1014
31 -237 46 -306 91 -441 134 -401 399 -712 764 -895 96 -48 190 -88 235 -99
27 -7 24 -2 -36 61 -161 166 -285 429 -348 733 -42 199 -53 328 -61 710 -9
396 -12 429 -65 586 -102 305 -333 557 -659 721 -163 82 -395 158 -541 178
l-50 7 32 -26z"/>
<path d="M5425 4885 c-153 -35 -277 -79 -420 -149 -345 -169 -575 -417 -679
-731 -54 -165 -58 -196 -66 -595 -8 -398 -19 -519 -66 -730 -34 -152 -75 -273
-134 -395 -65 -136 -119 -216 -204 -304 -77 -80 -76 -80 44 -33 369 144 653
396 819 729 101 201 154 398 196 728 77 599 268 1077 564 1413 57 63 77 92 64
91 -10 0 -63 -11 -118 -24z"/>
<path d="M4241 4545 c-144 -67 -331 -120 -479 -135 -201 -21 -383 17 -701 147
-7 3 12 -26 42 -65 153 -198 241 -422 267 -679 12 -113 8 -196 -16 -376 -18
-138 -18 -432 1 -562 29 -210 88 -431 166 -627 49 -126 150 -338 159 -338 4 0
32 55 63 123 238 521 322 999 251 1422 -23 133 -23 350 0 475 34 191 124 399
232 537 52 66 78 103 72 103 -2 0 -27 -12 -57 -25z"/>
<path d="M5426 6167 l-188 -72 43 -38 c32 -28 48 -37 64 -32 49 17 67 9 151
-60 l84 -70 -5 -41 c-5 -38 -3 -44 36 -78 22 -21 43 -36 45 -34 5 6 84 374 84
395 0 18 -96 103 -115 102 -5 0 -95 -32 -199 -72z m211 -44 c-3 -10 -11 -43
-17 -73 -7 -30 -15 -60 -19 -67 -4 -7 -27 7 -65 41 l-59 52 74 31 c88 37 92
38 86 16z"/>
<path d="M1506 6061 l-139 -140 100 -108 c56 -59 112 -118 126 -131 l25 -23
146 142 147 142 -28 29 -27 28 -66 -62 c-36 -35 -84 -81 -107 -103 l-43 -39
-25 24 -26 24 97 97 96 96 -18 27 -17 27 -102 -101 -101 -101 -24 27 -25 26
110 103 110 103 -24 26 c-14 14 -29 26 -35 26 -6 0 -74 -63 -150 -139z"/>
<path d="M5832 5805 c-98 -80 -140 -120 -134 -128 18 -24 196 -242 208 -256
10 -11 18 -9 48 14 l35 27 -82 100 c-70 86 -79 102 -66 112 52 38 199 161 199
165 0 4 -15 23 -33 45 l-33 38 -142 -117z"/>
<path d="M1163 5668 c-66 -90 -123 -169 -127 -177 -6 -9 1 -21 20 -37 16 -13
32 -23 36 -24 3 0 28 29 54 65 l47 64 51 -37 c28 -20 77 -56 110 -79 32 -24
62 -43 66 -43 14 0 63 81 54 89 -5 4 -52 39 -104 76 -52 38 -99 72 -103 76 -5
4 12 35 37 70 26 35 45 67 43 72 -1 4 -16 17 -34 28 l-31 20 -119 -163z"/>
<path d="M6290 5390 c-69 -19 -110 -55 -110 -98 0 -10 25 -69 55 -131 57 -115
66 -155 40 -165 -27 -10 -39 3 -83 83 -42 78 -51 114 -32 126 15 9 -38 107
-53 99 -33 -19 -57 -50 -57 -75 0 -39 132 -302 165 -328 32 -25 53 -26 99 -7
95 39 99 87 20 246 -50 103 -54 115 -39 129 23 23 41 7 88 -81 34 -63 40 -80
31 -95 -9 -14 -7 -28 13 -66 21 -42 26 -46 43 -37 11 6 27 22 36 36 14 21 15
31 6 62 -17 54 -95 211 -130 258 -33 45 -53 54 -92 44z"/>
<path d="M941 5333 c-12 -25 -21 -46 -19 -48 2 -1 55 -26 118 -55 63 -30 118
-57 123 -60 4 -4 -67 -24 -158 -45 -90 -21 -169 -41 -174 -44 -16 -11 -82
-154 -74 -161 10 -10 310 -150 321 -150 8 0 42 63 42 79 0 4 -55 34 -122 66
-82 39 -117 60 -107 65 8 4 68 20 134 35 213 48 192 37 231 118 19 39 34 77
34 83 0 7 -12 17 -27 22 -16 5 -89 39 -164 75 l-136 65 -22 -45z"/>
<path d="M6405 4824 c-105 -33 -129 -59 -122 -128 5 -48 53 -229 75 -286 16
-41 40 -55 90 -53 24 1 48 5 52 10 4 4 1 29 -6 56 -12 39 -19 47 -38 47 -20 0
-27 9 -39 43 -60 168 -53 193 61 218 70 14 84 2 111 -100 25 -92 26 -110 6
-125 -12 -9 -13 -18 -4 -51 15 -54 22 -59 58 -41 44 23 64 58 56 98 -16 78
-66 256 -81 284 -31 60 -91 68 -219 28z"/>
<path d="M692 4734 c-7 -26 -11 -48 -9 -50 12 -12 341 -104 347 -97 10 10 31
85 26 91 -7 7 -320 102 -336 102 -10 0 -20 -16 -28 -46z"/>
<path d="M571 4118 c-6 -95 -15 -194 -18 -219 l-5 -46 43 -6 c24 -3 45 -5 46
-3 1 1 5 39 9 84 7 83 7 83 33 78 14 -3 76 -8 137 -12 111 -6 111 -6 117 17 4
13 7 38 7 55 l0 31 -122 7 c-68 4 -131 9 -140 12 -15 5 -17 15 -11 85 5 67 4
79 -9 79 -9 0 -29 3 -45 6 l-30 6 -12 -174z"/>
<path d="M6610 4274 c-14 -2 -69 -6 -122 -9 l-98 -7 0 -55 0 -56 74 7 74 7 6
-78 c4 -43 9 -102 11 -130 l5 -53 -37 0 c-21 0 -55 -3 -75 -6 l-37 -6 6 -52
c3 -28 6 -52 7 -53 1 -1 357 24 364 26 4 2 2 48 -4 79 l-6 30 -63 -6 -64 -5
-5 34 c-3 19 -8 78 -12 132 l-6 97 66 0 66 0 0 55 0 55 -62 -1 c-35 -1 -74 -3
-88 -5z"/>
<path d="M713 3751 c-84 -9 -155 -20 -159 -23 -3 -4 -3 -29 1 -57 6 -47 8 -50
33 -46 15 2 46 6 68 9 l41 6 6 -53 c3 -28 9 -86 13 -128 l6 -76 -38 -6 c-22
-4 -52 -7 -68 -7 -28 0 -29 0 -24 -50 3 -28 8 -53 10 -56 7 -6 344 27 357 35
5 3 7 28 4 55 l-6 49 -72 -6 -71 -6 -12 113 c-7 62 -12 120 -12 129 0 11 17
17 71 22 l71 7 -6 30 c-3 17 -6 41 -6 54 0 28 7 28 -207 5z"/>
<path d="M6459 3676 c-14 -8 -31 -27 -38 -42 -19 -42 -53 -303 -46 -352 8 -52
39 -75 125 -93 126 -27 198 -10 221 49 20 51 41 197 43 290 1 83 -1 95 -19
108 -54 40 -240 66 -286 40z m191 -120 c24 -11 25 -15 22 -86 -1 -41 -8 -97
-15 -125 l-12 -50 -47 -3 c-26 -2 -65 2 -87 8 -51 13 -56 32 -42 137 17 115
20 123 43 132 28 10 104 3 138 -13z"/>
<path d="M860 3184 c-30 -9 -59 -19 -63 -23 -4 -4 9 -60 29 -123 l37 -116 29
10 c33 12 34 18 9 91 -17 48 -17 56 -4 61 31 12 52 -14 77 -98 37 -121 36
-133 -21 -158 -61 -27 -116 -34 -130 -17 -14 17 -63 178 -63 206 0 12 5 23 11
25 9 3 7 19 -5 56 l-18 53 -31 -19 c-18 -10 -39 -30 -47 -45 -13 -23 -13 -34
4 -99 29 -116 76 -237 104 -270 24 -29 29 -30 81 -25 60 5 158 36 198 62 30
20 46 61 40 101 -10 60 -87 292 -105 313 -23 28 -66 33 -132 15z"/>
<path d="M6352 3097 c-12 -7 -28 -22 -36 -32 -26 -40 -109 -289 -110 -333 -1
-38 3 -48 32 -71 36 -31 172 -81 217 -81 64 0 88 34 154 223 66 189 59 211
-78 268 -87 36 -146 45 -179 26z m153 -133 c29 -14 41 -26 43 -45 4 -34 -54
-192 -78 -214 -18 -17 -22 -17 -72 0 -69 22 -98 41 -98 64 0 25 58 192 73 210
15 17 79 10 132 -15z"/>
<path d="M1003 2617 c-84 -40 -155 -75 -158 -78 -5 -5 32 -99 39 -99 4 0 320
151 325 156 7 6 -34 94 -44 94 -5 0 -78 -33 -162 -73z"/>
<path d="M6040 2453 c-47 -82 -86 -152 -88 -158 -2 -9 51 -45 67 -45 4 0 34
47 66 105 33 57 64 105 68 105 4 0 60 -30 123 -67 65 -37 118 -62 123 -57 4 5
18 25 30 46 l22 36 -138 80 c-142 81 -179 102 -185 102 -2 0 -42 -66 -88 -147z"/>
<path d="M1203 2527 c-18 -12 -33 -25 -33 -29 0 -4 19 -38 43 -75 24 -38 53
-84 65 -104 l22 -36 -119 -74 -120 -74 22 -39 c12 -21 27 -41 34 -43 8 -3 286
159 312 183 3 2 -189 315 -193 313 0 0 -16 -10 -33 -22z"/>
<path d="M1430 1898 c0 -15 -9 -32 -22 -41 l-23 -16 23 -7 c15 -4 25 -17 29
-36 5 -28 6 -28 20 -8 8 11 25 20 40 20 20 0 24 4 18 18 -9 22 -9 32 0 55 6
16 4 17 -19 11 -19 -4 -33 -1 -46 11 -19 18 -20 17 -20 -7z"/>
<path d="M5880 1900 c0 -6 -11 -22 -24 -35 -23 -23 -24 -24 -5 -30 11 -4 25
-18 30 -32 9 -24 11 -25 28 -9 9 9 28 16 40 16 19 0 20 3 11 20 -6 11 -8 30
-4 44 5 21 3 23 -19 19 -14 -3 -28 0 -31 6 -9 14 -26 14 -26 1z"/>
<path d="M5536 1721 c-62 -41 -85 -120 -50 -170 16 -22 22 -23 80 -18 43 3 67
1 73 -7 14 -17 -10 -50 -48 -66 -30 -12 -30 -13 -15 -42 l15 -29 42 24 c27 16
50 41 66 70 20 41 22 50 11 82 -16 47 -46 62 -103 48 -52 -11 -67 -7 -67 18 0
15 13 28 58 55 5 3 -21 54 -27 54 -3 0 -19 -9 -35 -19z"/>
<path d="M1775 1639 c-104 -43 -194 -80 -200 -82 -14 -6 35 -57 54 -57 9 0 35
9 59 20 l43 20 42 -39 41 -39 -29 -41 -28 -42 30 -30 30 -31 116 163 c128 180
126 171 57 219 -25 17 -28 16 -215 -61z m169 -11 c-4 -7 -26 -37 -48 -65 l-41
-53 -29 30 c-17 16 -28 31 -25 33 4 3 140 64 147 66 2 1 0 -5 -4 -11z"/>
<path d="M5357 1559 c-46 -24 -77 -72 -77 -120 0 -52 29 -74 94 -72 28 1 57
-3 63 -9 19 -16 -2 -45 -42 -59 -38 -14 -38 -13 -29 -46 8 -29 29 -29 77 0 77
47 100 125 51 174 -23 23 -30 25 -80 18 -44 -5 -55 -4 -60 9 -7 20 12 45 43
57 20 7 21 11 12 39 -6 16 -12 30 -12 30 -1 -1 -19 -10 -40 -21z"/>
<path d="M2000 1420 c-104 -62 -107 -178 -5 -231 l46 -24 20 24 20 24 -30 18
c-59 36 -61 74 -5 118 34 27 84 27 117 1 25 -20 28 -20 51 -5 30 20 26 33 -20
65 -51 34 -145 39 -194 10z"/>
<path d="M5155 1403 c-32 -8 -74 -42 -90 -73 -19 -37 -19 -133 0 -170 38 -74
110 -90 187 -41 59 38 72 60 51 90 l-15 23 -27 -25 c-27 -25 -63 -47 -78 -47
-4 0 -14 4 -22 9 -11 7 -2 21 42 63 42 39 57 61 57 80 0 43 -20 76 -53 88 -16
5 -30 9 -31 9 -1 -1 -10 -4 -21 -6z m25 -78 c11 -13 8 -21 -15 -45 -16 -17
-35 -30 -42 -30 -21 0 -15 41 9 67 25 27 31 28 48 8z"/>
<path d="M2219 1277 c-99 -67 -104 -179 -9 -227 50 -26 65 -25 85 3 15 21 14
23 -14 34 -36 15 -60 48 -54 73 7 25 53 66 84 73 16 4 39 -1 64 -14 l38 -21
20 21 c16 16 18 23 8 35 -41 49 -164 62 -222 23z"/>
<path d="M4922 1269 c-78 -39 -117 -128 -93 -216 23 -84 99 -115 181 -73 49
25 55 35 40 70 l-12 30 -25 -20 c-57 -45 -120 -1 -110 75 6 41 43 85 73 85 15
0 17 12 8 48 -8 27 -9 27 -62 1z"/>
<path d="M2464 1171 c-40 -25 -71 -65 -85 -110 -23 -76 34 -140 139 -157 35
-5 40 -4 45 17 10 36 10 36 -31 43 -42 6 -88 47 -79 69 5 12 15 11 63 -5 68
-23 116 -18 139 15 17 25 20 70 5 98 -26 48 -138 66 -196 30z m116 -49 c33
-27 17 -46 -33 -39 -55 8 -66 22 -31 41 37 19 37 19 64 -2z"/>
<path d="M4669 1147 c-68 -45 -99 -123 -79 -196 23 -87 82 -118 165 -87 58 23
69 37 54 70 -12 25 -14 25 -35 11 -55 -36 -109 -3 -109 67 0 33 6 45 33 69 18
16 39 29 47 29 10 0 15 10 15 30 0 26 -3 30 -29 30 -15 0 -43 -10 -62 -23z"/>
<path d="M4033 1081 c-47 -22 -73 -62 -73 -113 0 -47 24 -77 86 -104 29 -13
57 -32 63 -42 24 -44 -54 -86 -118 -64 -28 10 -29 9 -36 -25 -3 -19 -3 -38 0
-42 4 -3 37 -6 73 -5 109 1 172 48 172 128 0 55 -21 82 -88 114 -72 35 -85 56
-52 83 18 15 35 20 67 17 45 -3 43 -6 59 55 5 15 -2 17 -53 17 -35 0 -74 -8
-100 -19z"/>
<path d="M2735 1065 c-34 -33 -32 -73 5 -120 17 -21 29 -43 27 -49 -7 -20 -50
-18 -80 4 l-30 23 -18 -24 c-14 -19 -15 -27 -6 -38 20 -23 73 -41 125 -41 91
0 122 75 61 151 -17 21 -28 43 -24 49 9 15 48 12 71 -4 17 -13 21 -12 37 1 25
24 21 37 -18 56 -54 26 -121 22 -150 -8z"/>
<path d="M4464 1069 l-32 -9 2 -106 c1 -101 0 -106 -24 -126 l-24 -20 -17 21
c-11 14 -19 50 -24 112 l-7 91 -37 -7 c-20 -4 -37 -8 -39 -10 -2 -1 1 -53 7
-114 11 -128 25 -161 71 -161 40 0 77 18 97 49 16 25 17 25 22 5 5 -18 10 -19
40 -12 l33 9 -6 52 c-3 29 -8 94 -12 145 -4 50 -9 92 -13 91 -3 0 -20 -5 -37
-10z"/>
<path d="M3397 1033 c-21 -3 -31 -13 -39 -34 -6 -17 -17 -29 -28 -29 -18 0
-30 -19 -30 -46 0 -8 7 -14 15 -14 8 0 15 -1 15 -2 0 -2 -9 -32 -20 -66 -39
-123 -23 -167 57 -160 30 2 38 8 44 31 6 22 4 27 -11 27 -30 0 -32 16 -10 90
20 69 22 70 54 70 26 0 35 5 39 22 8 28 1 38 -28 38 -22 0 -23 2 -14 32 15 53
18 50 -44 41z"/>
<path d="M2975 995 c-37 -36 -33 -76 11 -125 30 -33 34 -43 24 -55 -16 -20
-28 -19 -73 5 l-37 20 -12 -26 c-11 -23 -10 -28 7 -40 29 -22 95 -37 129 -30
46 9 76 43 76 85 0 27 -8 44 -37 73 -34 35 -36 40 -22 54 15 14 20 14 52 0 35
-14 37 -14 52 7 8 12 15 24 15 28 0 14 -55 29 -106 29 -45 0 -59 -4 -79 -25z"/>
<path d="M3607 946 c-50 -18 -76 -42 -98 -91 -50 -109 9 -204 121 -193 89 9
150 80 150 176 0 61 -26 97 -78 112 -46 12 -48 12 -95 -4z m73 -66 c25 -25 25
-53 0 -107 -41 -91 -125 -55 -99 42 11 38 49 85 69 85 5 0 19 -9 30 -20z"/>
</g>
</svg>
